<?xml version="1.0" encoding="UTF-8"?> <svg xmlns="http://www.w3.org/2000/svg" xmlns:xlink="http://www.w3.org/1999/xlink" width="500" zoomAndPan="magnify" viewBox="0 0 375 225" height="300" preserveAspectRatio="xMidYMid meet" version="1.0"><defs><g></g><clipPath id="7688e6edad"><path d="M 22.5 41 L 70 41 L 70 47 L 22.5 47 Z M 22.5 41 " clip-rule="nonzero"></path></clipPath><clipPath id="28f02b8945"><path d="M 88.011719 13.453125 L 93.875 13.453125 L 93.875 74.863281 L 88.011719 74.863281 Z M 88.011719 13.453125 " clip-rule="nonzero"></path></clipPath><clipPath id="1a1474d897"><path d="M 91.460938 41.265625 L 149.234375 41.265625 L 149.234375 46.828125 L 91.460938 46.828125 Z M 91.460938 41.265625 " clip-rule="nonzero"></path></clipPath><clipPath id="89bb84cc23"><path d="M 220.664062 14.105469 L 228.039062 14.105469 L 228.039062 73.835938 L 220.664062 73.835938 Z M 220.664062 14.105469 " clip-rule="nonzero"></path></clipPath><clipPath id="2849424c97"><path d="M 186.089844 40 L 225 40 L 225 48 L 186.089844 48 Z M 186.089844 40 " clip-rule="nonzero"></path></clipPath><clipPath id="b549a4d9ed"><path d="M 314 40.382812 L 352.480469 40.382812 L 352.480469 47.757812 L 314 47.757812 Z M 314 40.382812 " clip-rule="nonzero"></path></clipPath><clipPath id="0addbe647e"><path d="M 293.035156 14.105469 L 300.871094 14.105469 L 300.871094 73.835938 L 293.035156 73.835938 Z M 293.035156 14.105469 " clip-rule="nonzero"></path></clipPath><clipPath id="1391cc770d"><path d="M 214.644531 205 L 324.027344 205 L 324.027344 214.035156 L 214.644531 214.035156 Z M 214.644531 205 " clip-rule="nonzero"></path></clipPath><clipPath id="7701c6d5b3"><path d="M 244 124.050781 L 293 124.050781 L 293 144 L 244 144 Z M 244 124.050781 " clip-rule="nonzero"></path></clipPath><clipPath id="cdee1e1ce4"><path d="M 68.765625 130 L 103.265625 130 L 103.265625 214 L 68.765625 214 Z M 68.765625 130 " clip-rule="nonzero"></path></clipPath><clipPath id="a54eed925d"><path d="M 92 130 L 103.265625 130 L 103.265625 214 L 92 214 Z M 92 130 " clip-rule="nonzero"></path></clipPath><clipPath id="22a145aad0"><path d="M 68.765625 156 L 103.265625 156 L 103.265625 163 L 68.765625 163 Z M 68.765625 156 " clip-rule="nonzero"></path></clipPath><clipPath id="a79452e2d6"><path d="M 68.765625 125 L 103.265625 125 L 103.265625 137 L 68.765625 137 Z M 68.765625 125 " clip-rule="nonzero"></path></clipPath><clipPath id="dc9479fc43"><path d="M 78 124.050781 L 94 124.050781 L 94 129 L 78 129 Z M 78 124.050781 " clip-rule="nonzero"></path></clipPath><clipPath id="95e8f897c6"><path d="M 69.941406 135.859375 L 82.082031 135.859375 L 82.082031 208.414062 L 69.941406 208.414062 Z M 69.941406 135.859375 " clip-rule="nonzero"></path></clipPath><clipPath id="cd85d19839"><path d="M 69.941406 208.414062 L 69.941406 159.996094 C 70.78125 160.433594 71.804688 160.835938 73.003906 161.191406 C 75.347656 161.890625 78.199219 162.375 81.308594 162.621094 C 81.085938 165.671875 80.796875 168.875 80.429688 172.136719 C 78.449219 189.664062 69.941406 208.414062 69.941406 208.414062 M 81.425781 160.949219 C 78.441406 160.714844 75.714844 160.25 73.484375 159.585938 C 71.832031 159.09375 70.6875 158.558594 69.941406 158.050781 L 69.941406 135.859375 C 69.941406 135.859375 72.144531 137.351562 74.429688 137.9375 C 77.695312 138.777344 79.648438 138.972656 80.757812 138.972656 C 81.714844 138.972656 82.042969 138.828125 82.042969 138.828125 C 82.042969 138.828125 82.082031 140.425781 82.066406 143.171875 C 81.390625 144.140625 81 145.324219 81.015625 146.597656 C 81.027344 147.75 81.371094 148.820312 81.957031 149.722656 C 81.863281 152.980469 81.703125 156.804688 81.425781 160.949219 " clip-rule="nonzero"></path></clipPath><clipPath id="5cf68559f4"><path d="M 69.941406 208.414062 L 69.941406 159.996094 C 70.78125 160.433594 71.804688 160.835938 73.003906 161.191406 C 75.347656 161.890625 78.199219 162.375 81.308594 162.621094 C 81.085938 165.671875 80.796875 168.875 80.429688 172.136719 C 78.449219 189.664062 69.941406 208.414062 69.941406 208.414062 M 81.425781 160.949219 C 78.441406 160.714844 75.714844 160.25 73.484375 159.585938 C 71.832031 159.09375 70.6875 158.558594 69.941406 158.050781 L 69.941406 135.859375 C 69.941406 135.859375 72.144531 137.351562 74.429688 137.9375 C 77.695312 138.777344 79.648438 138.972656 80.757812 138.972656 C 81.714844 138.972656 82.042969 138.828125 82.042969 138.828125 C 82.042969 138.828125 82.082031 140.425781 82.066406 143.171875 C 81.390625 144.140625 81 145.324219 81.015625 146.597656 C 81.027344 147.75 81.371094 148.820312 81.957031 149.722656 C 81.863281 152.980469 81.703125 156.804688 81.425781 160.949219 " clip-rule="nonzero"></path></clipPath><linearGradient x1="0.234229" gradientTransform="matrix(0, 71.304192, -71.231606, 0, 76.006805, 119.156127)" y1="0" x2="1.251801" gradientUnits="userSpaceOnUse" y2="0" id="e32e81c91d"><stop stop-opacity="1" stop-color="rgb(100%, 100%, 65.899658%)" offset="0"></stop><stop stop-opacity="1" stop-color="rgb(100%, 100%, 65.699768%)" offset="0.00390625"></stop><stop stop-opacity="1" stop-color="rgb(100%, 100%, 65.499878%)" offset="0.0078125"></stop><stop stop-opacity="1" stop-color="rgb(100%, 100%, 65.307617%)" offset="0.015625"></stop><stop stop-opacity="1" stop-color="rgb(100%, 100%, 64.906311%)" offset="0.0195312"></stop><stop stop-opacity="1" stop-color="rgb(100%, 100%, 64.698792%)" offset="0.0234375"></stop><stop stop-opacity="1" stop-color="rgb(100%, 100%, 64.498901%)" offset="0.0273437"></stop><stop stop-opacity="1" stop-color="rgb(100%, 100%, 64.299011%)" offset="0.03125"></stop><stop stop-opacity="1" stop-color="rgb(100%, 100%, 64.291382%)" offset="0.0390625"></stop><stop stop-opacity="1" stop-color="rgb(100%, 100%, 64.091492%)" offset="0.046875"></stop><stop stop-opacity="1" stop-color="rgb(100%, 100%, 63.899231%)" offset="0.0546875"></stop><stop stop-opacity="1" stop-color="rgb(100%, 100%, 63.513184%)" offset="0.0585937"></stop><stop stop-opacity="1" stop-color="rgb(100%, 100%, 63.128662%)" offset="0.0625"></stop><stop stop-opacity="1" stop-color="rgb(100%, 100%, 63.101196%)" offset="0.0703125"></stop><stop stop-opacity="1" stop-color="rgb(100%, 100%, 62.886047%)" offset="0.078125"></stop><stop stop-opacity="1" stop-color="rgb(100%, 100%, 62.693787%)" offset="0.0859375"></stop><stop stop-opacity="1" stop-color="rgb(100%, 100%, 62.347412%)" offset="0.0898437"></stop><stop stop-opacity="1" stop-color="rgb(100%, 100%, 62.005615%)" offset="0.09375"></stop><stop stop-opacity="1" stop-color="rgb(100%, 100%, 62.002563%)" offset="0.101562"></stop><stop stop-opacity="1" stop-color="rgb(100%, 100%, 61.799622%)" offset="0.105469"></stop><stop stop-opacity="1" stop-color="rgb(100%, 100%, 61.599731%)" offset="0.109375"></stop><stop stop-opacity="1" stop-color="rgb(100%, 100%, 61.581421%)" offset="0.117187"></stop><stop stop-opacity="1" stop-color="rgb(100%, 100%, 61.180115%)" offset="0.121094"></stop><stop stop-opacity="1" stop-color="rgb(100%, 100%, 60.798645%)" offset="0.125"></stop><stop stop-opacity="1" stop-color="rgb(100%, 100%, 60.603333%)" offset="0.140625"></stop><stop stop-opacity="1" stop-color="rgb(100%, 100%, 60.374451%)" offset="0.148437"></stop><stop stop-opacity="1" stop-color="rgb(100%, 100%, 59.968567%)" offset="0.152344"></stop><stop stop-opacity="1" stop-color="rgb(100%, 100%, 59.599304%)" offset="0.15625"></stop><stop stop-opacity="1" stop-color="rgb(100%, 100%, 59.593201%)" offset="0.164062"></stop><stop stop-opacity="1" stop-color="rgb(100%, 100%, 59.393311%)" offset="0.171875"></stop><stop stop-opacity="1" stop-color="rgb(100%, 100%, 59.199524%)" offset="0.179687"></stop><stop stop-opacity="1" stop-color="rgb(100%, 99.598694%, 58.999634%)" offset="0.183594"></stop><stop stop-opacity="1" stop-color="rgb(100%, 99.198914%, 58.799744%)" offset="0.1875"></stop><stop stop-opacity="1" stop-color="rgb(100%, 98.776245%, 58.599854%)" offset="0.191406"></stop><stop stop-opacity="1" stop-color="rgb(100%, 98.353577%, 58.399963%)" offset="0.195312"></stop><stop stop-opacity="1" stop-color="rgb(100%, 98.162842%, 58.198547%)" offset="0.199219"></stop><stop stop-opacity="1" stop-color="rgb(100%, 97.972107%, 57.998657%)" offset="0.203125"></stop><stop stop-opacity="1" stop-color="rgb(100%, 97.634888%, 57.995605%)" offset="0.207031"></stop><stop stop-opacity="1" stop-color="rgb(100%, 97.299194%, 57.992554%)" offset="0.210937"></stop><stop stop-opacity="1" stop-color="rgb(100%, 97.105408%, 57.795715%)" offset="0.214844"></stop><stop stop-opacity="1" stop-color="rgb(100%, 96.911621%, 57.598877%)" offset="0.21875"></stop><stop stop-opacity="1" stop-color="rgb(100%, 96.720886%, 57.598877%)" offset="0.226562"></stop><stop stop-opacity="1" stop-color="rgb(100%, 96.315002%, 57.449341%)" offset="0.230469"></stop><stop stop-opacity="1" stop-color="rgb(100%, 96.099854%, 57.299805%)" offset="0.234375"></stop><stop stop-opacity="1" stop-color="rgb(100%, 95.898438%, 57.098389%)" offset="0.238281"></stop><stop stop-opacity="1" stop-color="rgb(100%, 95.698547%, 56.898499%)" offset="0.242187"></stop><stop stop-opacity="1" stop-color="rgb(100%, 95.498657%, 56.698608%)" offset="0.246094"></stop><stop stop-opacity="1" stop-color="rgb(100%, 95.298767%, 56.498718%)" offset="0.25"></stop><stop stop-opacity="1" stop-color="rgb(100%, 95.101929%, 56.498718%)" offset="0.253906"></stop><stop stop-opacity="1" stop-color="rgb(100%, 94.906616%, 56.498718%)" offset="0.257812"></stop><stop stop-opacity="1" stop-color="rgb(100%, 94.715881%, 56.298828%)" offset="0.261719"></stop><stop stop-opacity="1" stop-color="rgb(100%, 94.525146%, 56.098938%)" offset="0.265625"></stop><stop stop-opacity="1" stop-color="rgb(100%, 94.284058%, 55.899048%)" offset="0.269531"></stop><stop stop-opacity="1" stop-color="rgb(100%, 94.044495%, 55.699158%)" offset="0.273438"></stop><stop stop-opacity="1" stop-color="rgb(100%, 93.862915%, 55.499268%)" offset="0.277344"></stop><stop stop-opacity="1" stop-color="rgb(100%, 93.681335%, 55.299377%)" offset="0.28125"></stop><stop stop-opacity="1" stop-color="rgb(100%, 93.486023%, 55.299377%)" offset="0.289062"></stop><stop stop-opacity="1" stop-color="rgb(100%, 93.095398%, 55.299377%)" offset="0.296875"></stop><stop stop-opacity="1" stop-color="rgb(100%, 92.89856%, 55.299377%)" offset="0.304687"></stop><stop stop-opacity="1" stop-color="rgb(100%, 92.564392%, 54.919434%)" offset="0.308594"></stop><stop stop-opacity="1" stop-color="rgb(100%, 92.230225%, 54.53949%)" offset="0.3125"></stop><stop stop-opacity="1" stop-color="rgb(100%, 91.993713%, 54.498291%)" offset="0.316406"></stop><stop stop-opacity="1" stop-color="rgb(100%, 91.758728%, 54.458618%)" offset="0.320312"></stop><stop stop-opacity="1" stop-color="rgb(100%, 91.567993%, 54.278564%)" offset="0.328125"></stop><stop stop-opacity="1" stop-color="rgb(100%, 90.988159%, 54.096985%)" offset="0.332031"></stop><stop stop-opacity="1" stop-color="rgb(100%, 90.59906%, 54.096985%)" offset="0.335937"></stop><stop stop-opacity="1" stop-color="rgb(100%, 90.406799%, 53.897095%)" offset="0.339844"></stop><stop stop-opacity="1" stop-color="rgb(100%, 90.216064%, 53.69873%)" offset="0.34375"></stop><stop stop-opacity="1" stop-color="rgb(100%, 90.206909%, 53.69873%)" offset="0.351562"></stop><stop stop-opacity="1" stop-color="rgb(100%, 89.99939%, 53.49884%)" offset="0.355469"></stop><stop stop-opacity="1" stop-color="rgb(100%, 89.7995%, 53.29895%)" offset="0.359375"></stop><stop stop-opacity="1" stop-color="rgb(100%, 89.785767%, 53.285217%)" offset="0.367187"></stop><stop stop-opacity="1" stop-color="rgb(100%, 89.385986%, 53.085327%)" offset="0.371094"></stop><stop stop-opacity="1" stop-color="rgb(100%, 88.999939%, 52.89917%)" offset="0.375"></stop><stop stop-opacity="1" stop-color="rgb(100%, 88.806152%, 52.89917%)" offset="0.382812"></stop><stop stop-opacity="1" stop-color="rgb(100%, 88.421631%, 52.69928%)" offset="0.386719"></stop><stop stop-opacity="1" stop-color="rgb(100%, 88.230896%, 52.49939%)" offset="0.390625"></stop><stop stop-opacity="1" stop-color="rgb(100%, 88.014221%, 52.348328%)" offset="0.394531"></stop><stop stop-opacity="1" stop-color="rgb(100%, 87.799072%, 52.198792%)" offset="0.398437"></stop><stop stop-opacity="1" stop-color="rgb(100%, 87.649536%, 51.998901%)" offset="0.402344"></stop><stop stop-opacity="1" stop-color="rgb(100%, 87.5%, 51.799011%)" offset="0.40625"></stop><stop stop-opacity="1" stop-color="rgb(100%, 87.496948%, 51.799011%)" offset="0.414062"></stop><stop stop-opacity="1" stop-color="rgb(100%, 87.298584%, 51.799011%)" offset="0.421875"></stop><stop stop-opacity="1" stop-color="rgb(100%, 87.10022%, 51.799011%)" offset="0.429687"></stop><stop stop-opacity="1" stop-color="rgb(100%, 86.721802%, 51.422119%)" offset="0.433594"></stop><stop stop-opacity="1" stop-color="rgb(100%, 86.34491%, 51.045227%)" offset="0.4375"></stop><stop stop-opacity="1" stop-color="rgb(100%, 86.122131%, 51.004028%)" offset="0.441406"></stop><stop stop-opacity="1" stop-color="rgb(100%, 85.899353%, 50.964355%)" offset="0.445312"></stop><stop stop-opacity="1" stop-color="rgb(100%, 85.699463%, 50.78125%)" offset="0.449219"></stop><stop stop-opacity="1" stop-color="rgb(100%, 85.499573%, 50.59967%)" offset="0.453125"></stop><stop stop-opacity="1" stop-color="rgb(100%, 85.301208%, 50.59967%)" offset="0.457031"></stop><stop stop-opacity="1" stop-color="rgb(100%, 85.102844%, 50.59967%)" offset="0.460937"></stop><stop stop-opacity="1" stop-color="rgb(100%, 84.912109%, 50.39978%)" offset="0.464844"></stop><stop stop-opacity="1" stop-color="rgb(100%, 84.721375%, 50.19989%)" offset="0.46875"></stop><stop stop-opacity="1" stop-color="rgb(100%, 84.709167%, 50.19989%)" offset="0.476562"></stop><stop stop-opacity="1" stop-color="rgb(100%, 84.498596%, 50.19989%)" offset="0.480469"></stop><stop stop-opacity="1" stop-color="rgb(100%, 84.298706%, 50.19989%)" offset="0.484375"></stop><stop stop-opacity="1" stop-color="rgb(100%, 84.288025%, 50.189209%)" offset="0.492187"></stop><stop stop-opacity="1" stop-color="rgb(100%, 83.888245%, 49.787903%)" offset="0.496094"></stop><stop stop-opacity="1" stop-color="rgb(100%, 83.499146%, 49.398804%)" offset="0.5"></stop><stop stop-opacity="1" stop-color="rgb(100%, 83.306885%, 49.398804%)" offset="0.507812"></stop><stop stop-opacity="1" stop-color="rgb(100%, 82.925415%, 49.198914%)" offset="0.511719"></stop><stop stop-opacity="1" stop-color="rgb(100%, 82.736206%, 48.999023%)" offset="0.515625"></stop><stop stop-opacity="1" stop-color="rgb(100%, 82.566833%, 48.976135%)" offset="0.523437"></stop><stop stop-opacity="1" stop-color="rgb(100%, 82.199097%, 48.776245%)" offset="0.527344"></stop><stop stop-opacity="1" stop-color="rgb(100%, 81.999207%, 48.599243%)" offset="0.53125"></stop><stop stop-opacity="1" stop-color="rgb(100%, 81.997681%, 48.599243%)" offset="0.539062"></stop><stop stop-opacity="1" stop-color="rgb(100%, 81.800842%, 48.599243%)" offset="0.546875"></stop><stop stop-opacity="1" stop-color="rgb(100%, 81.414795%, 48.41156%)" offset="0.5625"></stop><stop stop-opacity="1" stop-color="rgb(100%, 81.196594%, 48.196411%)" offset="0.570312"></stop><stop stop-opacity="1" stop-color="rgb(100%, 80.783081%, 47.984314%)" offset="0.574219"></stop><stop stop-opacity="1" stop-color="rgb(100%, 80.39856%, 47.799683%)" offset="0.578125"></stop><stop stop-opacity="1" stop-color="rgb(100%, 80.203247%, 47.799683%)" offset="0.585937"></stop><stop stop-opacity="1" stop-color="rgb(100%, 79.8172%, 47.648621%)" offset="0.59375"></stop><stop stop-opacity="1" stop-color="rgb(100%, 79.612732%, 47.499084%)" offset="0.601562"></stop><stop stop-opacity="1" stop-color="rgb(100%, 79.399109%, 47.299194%)" offset="0.605469"></stop><stop stop-opacity="1" stop-color="rgb(100%, 79.199219%, 47.099304%)" offset="0.609375"></stop><stop stop-opacity="1" stop-color="rgb(100%, 79.194641%, 47.094727%)" offset="0.617188"></stop><stop stop-opacity="1" stop-color="rgb(100%, 78.996277%, 46.896362%)" offset="0.625"></stop><stop stop-opacity="1" stop-color="rgb(100%, 78.799438%, 46.699524%)" offset="0.632812"></stop><stop stop-opacity="1" stop-color="rgb(100%, 78.419495%, 46.499634%)" offset="0.636719"></stop><stop stop-opacity="1" stop-color="rgb(100%, 78.041077%, 46.299744%)" offset="0.640625"></stop><stop stop-opacity="1" stop-color="rgb(100%, 77.819824%, 46.279907%)" offset="0.644531"></stop><stop stop-opacity="1" stop-color="rgb(100%, 77.598572%, 46.260071%)" offset="0.648438"></stop><stop stop-opacity="1" stop-color="rgb(100%, 77.449036%, 46.080017%)" offset="0.65625"></stop><stop stop-opacity="1" stop-color="rgb(100%, 77.104187%, 45.899963%)" offset="0.671875"></stop><stop stop-opacity="1" stop-color="rgb(100%, 76.71814%, 45.713806%)" offset="0.6875"></stop><stop stop-opacity="1" stop-color="rgb(100%, 76.499939%, 45.500183%)" offset="0.695313"></stop><stop stop-opacity="1" stop-color="rgb(100%, 76.086426%, 45.28656%)" offset="0.699219"></stop><stop stop-opacity="1" stop-color="rgb(100%, 75.698853%, 45.098877%)" offset="0.703125"></stop><stop stop-opacity="1" stop-color="rgb(100%, 75.506592%, 44.906616%)" offset="0.71875"></stop><stop stop-opacity="1" stop-color="rgb(100%, 75.306702%, 44.706726%)" offset="0.726563"></stop><stop stop-opacity="1" stop-color="rgb(100%, 75.099182%, 44.499207%)" offset="0.730469"></stop><stop stop-opacity="1" stop-color="rgb(100%, 74.899292%, 44.299316%)" offset="0.734375"></stop><stop stop-opacity="1" stop-color="rgb(100%, 74.89624%, 44.299316%)" offset="0.742188"></stop><stop stop-opacity="1" stop-color="rgb(100%, 74.699402%, 44.299316%)" offset="0.75"></stop><stop stop-opacity="1" stop-color="rgb(100%, 74.501038%, 44.299316%)" offset="1"></stop></linearGradient><clipPath id="ff0ebfb5f5"><path d="M 69.941406 158.050781 L 81.425781 158.050781 L 81.425781 162.621094 L 69.941406 162.621094 Z M 69.941406 158.050781 " clip-rule="nonzero"></path></clipPath><clipPath id="9ad347387b"><path d="M 81.308594 162.621094 C 78.199219 162.375 75.347656 161.890625 73.003906 161.191406 C 71.804688 160.835938 70.78125 160.433594 69.941406 159.996094 L 69.941406 158.050781 C 70.6875 158.558594 71.832031 159.09375 73.484375 159.585938 C 75.714844 160.25 78.441406 160.714844 81.425781 160.949219 C 81.386719 161.5 81.347656 162.058594 81.308594 162.621094 " clip-rule="nonzero"></path></clipPath><clipPath id="b1052bce14"><path d="M 81.308594 162.621094 C 78.199219 162.375 75.347656 161.890625 73.003906 161.191406 C 71.804688 160.835938 70.78125 160.433594 69.941406 159.996094 L 69.941406 158.050781 C 70.6875 158.558594 71.832031 159.09375 73.484375 159.585938 C 75.714844 160.25 78.441406 160.714844 81.425781 160.949219 C 81.386719 161.5 81.347656 162.058594 81.308594 162.621094 " clip-rule="nonzero"></path></clipPath><linearGradient x1="0.545458" gradientTransform="matrix(0, 71.304192, -71.231606, 0, 76.006805, 119.156127)" y1="0" x2="0.609571" gradientUnits="userSpaceOnUse" y2="0" id="e416ef3ace"><stop stop-opacity="1" stop-color="rgb(100%, 47.476196%, 47.476196%)" offset="0"></stop><stop stop-opacity="1" stop-color="rgb(100%, 47.286987%, 47.286987%)" offset="0.125"></stop><stop stop-opacity="1" stop-color="rgb(100%, 47.087097%, 47.087097%)" offset="0.25"></stop><stop stop-opacity="1" stop-color="rgb(100%, 46.97876%, 46.97876%)" offset="0.28125"></stop><stop stop-opacity="1" stop-color="rgb(100%, 46.781921%, 46.781921%)" offset="0.3125"></stop><stop stop-opacity="1" stop-color="rgb(100%, 46.492004%, 46.492004%)" offset="0.375"></stop><stop stop-opacity="1" stop-color="rgb(100%, 46.298218%, 46.298218%)" offset="0.5"></stop><stop stop-opacity="1" stop-color="rgb(100%, 46.199036%, 46.199036%)" offset="0.625"></stop><stop stop-opacity="1" stop-color="rgb(100%, 46.002197%, 46.002197%)" offset="0.75"></stop><stop stop-opacity="1" stop-color="rgb(100%, 45.901489%, 45.901489%)" offset="1"></stop></linearGradient><clipPath id="63be9cab27"><path d="M 81 143.097656 L 82.152344 143.097656 L 82.152344 149.722656 L 81 149.722656 Z M 81 143.097656 " clip-rule="nonzero"></path></clipPath><clipPath id="b21c87e10f"><path d="M 81.957031 149.722656 C 81.371094 148.820312 81.027344 147.75 81.015625 146.597656 C 81 145.324219 81.390625 144.140625 82.066406 143.171875 C 82.058594 144.925781 82.03125 147.148438 81.957031 149.722656 " clip-rule="nonzero"></path></clipPath><clipPath id="fa08104457"><path d="M 81.957031 149.722656 C 81.371094 148.820312 81.027344 147.75 81.015625 146.597656 C 81 145.324219 81.390625 144.140625 82.066406 143.171875 C 82.058594 144.925781 82.03125 147.148438 81.957031 149.722656 " clip-rule="nonzero"></path></clipPath></defs><path fill="#212121" d="M 72.277344 26.800781 L 72.277344 61.511719 L 66.980469 61.511719 L 66.980469 26.800781 L 72.277344 26.800781 " fill-opacity="1" fill-rule="nonzero"></path><g clip-path="url(#7688e6edad)"><path fill="#212121" d="M 22.5 41.488281 L 69.628906 41.488281 L 69.628906 46.828125 L 22.5 46.828125 L 22.5 41.488281 " fill-opacity="1" fill-rule="nonzero"></path></g><g clip-path="url(#28f02b8945)"><path fill="#212121" d="M 93.625 13.453125 L 93.625 74.863281 L 88.328125 74.863281 L 88.328125 13.453125 L 93.625 13.453125 " fill-opacity="1" fill-rule="nonzero"></path></g><g clip-path="url(#1a1474d897)"><path fill="#212121" d="M 91.574219 41.488281 L 149.234375 41.488281 L 149.234375 46.828125 L 91.574219 46.828125 L 91.574219 41.488281 " fill-opacity="1" fill-rule="nonzero"></path></g><path fill="#212121" d="M 114.808594 16.121094 L 114.808594 34.8125 L 109.511719 34.8125 L 109.511719 16.121094 L 114.808594 16.121094 " fill-opacity="1" fill-rule="nonzero"></path><path fill="#212121" d="M 101.570312 22.796875 L 122.753906 22.796875 L 122.753906 28.136719 L 101.570312 28.136719 L 101.570312 22.796875 " fill-opacity="1" fill-rule="nonzero"></path><g clip-path="url(#89bb84cc23)"><path fill="#212121" d="M 228.027344 14.109375 L 228.027344 73.835938 L 220.949219 73.835938 L 220.949219 14.109375 L 228.027344 14.109375 " fill-opacity="1" fill-rule="nonzero"></path></g><g clip-path="url(#2849424c97)"><path fill="#212121" d="M 186.089844 40.433594 L 224.488281 40.433594 L 224.488281 47.511719 L 186.089844 47.511719 L 186.089844 40.433594 " fill-opacity="1" fill-rule="nonzero"></path></g><path fill="#212121" d="M 245.09375 26.90625 L 245.09375 61.039062 L 238.015625 61.039062 L 238.015625 26.90625 L 245.09375 26.90625 " fill-opacity="1" fill-rule="nonzero"></path><path fill="#212121" d="M 317.621094 26.90625 L 317.621094 61.039062 L 310.542969 61.039062 L 310.542969 26.90625 L 317.621094 26.90625 " fill-opacity="1" fill-rule="nonzero"></path><g clip-path="url(#b549a4d9ed)"><path fill="#212121" d="M 314.082031 40.433594 L 352.480469 40.433594 L 352.480469 47.511719 L 314.082031 47.511719 L 314.082031 40.433594 " fill-opacity="1" fill-rule="nonzero"></path></g><g clip-path="url(#0addbe647e)"><path fill="#212121" d="M 300.558594 14.109375 L 300.558594 73.835938 L 293.476562 73.835938 L 293.476562 14.109375 L 300.558594 14.109375 " fill-opacity="1" fill-rule="nonzero"></path></g><path fill="#212121" d="M 250.898438 42.429688 L 250.898438 49.511719 L 243.816406 49.511719 L 243.816406 42.429688 Z M 292.296875 42.429688 L 286.300781 42.429688 L 286.300781 49.511719 L 292.296875 49.511719 Z M 279.21875 42.429688 L 279.21875 49.511719 L 272.140625 49.511719 L 272.140625 42.429688 Z M 265.058594 42.429688 L 265.058594 49.511719 L 257.980469 49.511719 L 257.980469 42.429688 L 265.058594 42.429688 " fill-opacity="1" fill-rule="nonzero"></path><path fill="#7ec523" d="M 320.402344 159.4375 C 320.40625 159.566406 320.40625 159.691406 320.410156 159.820312 C 320.199219 159.976562 319.960938 160.109375 319.777344 160.296875 C 303.808594 176.242188 287.847656 192.191406 271.886719 208.144531 C 271.726562 208.304688 271.582031 208.484375 271.429688 208.652344 C 271.386719 208.691406 271.34375 208.726562 271.300781 208.761719 C 264.496094 208.761719 257.6875 208.761719 250.882812 208.761719 C 250.878906 208.726562 250.878906 208.691406 250.875 208.65625 C 250.921875 208.589844 250.960938 208.515625 251.019531 208.457031 C 254.621094 204.855469 258.21875 201.257812 261.828125 197.664062 C 261.949219 197.542969 262.140625 197.488281 262.296875 197.402344 C 262.015625 198.359375 261.722656 199.3125 261.464844 200.277344 C 261.414062 200.46875 261.488281 200.699219 261.503906 200.910156 C 261.699219 200.789062 261.96875 200.714844 262.074219 200.539062 C 263.65625 197.871094 265.214844 195.191406 266.777344 192.511719 C 266.996094 192.359375 267.242188 192.238281 267.425781 192.050781 C 278.09375 181.402344 288.757812 170.746094 299.417969 160.085938 C 299.601562 159.898438 299.734375 159.660156 299.890625 159.445312 C 299.972656 159.441406 300.050781 159.4375 300.128906 159.433594 C 306.886719 159.4375 313.644531 159.4375 320.402344 159.4375 " fill-opacity="1" fill-rule="nonzero"></path><path fill="#6cbd05" d="M 271.429688 208.652344 C 271.582031 208.484375 271.726562 208.304688 271.886719 208.144531 C 287.847656 192.191406 303.808594 176.242188 319.777344 160.296875 C 319.960938 160.109375 320.199219 159.976562 320.410156 159.820312 C 320.417969 166.457031 320.425781 173.089844 320.429688 179.726562 C 320.429688 182.3125 320.40625 184.902344 320.394531 187.488281 C 320.15625 187.636719 319.882812 187.75 319.691406 187.945312 C 312.925781 194.6875 306.171875 201.4375 299.417969 208.191406 C 299.273438 208.339844 299.144531 208.503906 299.007812 208.660156 C 298.964844 208.691406 298.925781 208.726562 298.882812 208.761719 C 297.210938 208.769531 295.539062 208.78125 293.871094 208.777344 C 286.390625 208.773438 278.914062 208.769531 271.4375 208.761719 C 271.4375 208.726562 271.433594 208.691406 271.429688 208.652344 " fill-opacity="1" fill-rule="nonzero"></path><path fill="#7ec523" d="M 217.914062 205.144531 C 217.921875 202.429688 217.933594 199.714844 217.945312 197 C 217.949219 196.75 217.964844 196.503906 217.972656 196.257812 C 218.183594 196.089844 218.410156 195.945312 218.597656 195.757812 C 230.53125 183.839844 242.460938 171.917969 254.386719 160 C 254.566406 159.824219 254.722656 159.628906 254.890625 159.445312 C 254.929688 159.441406 254.972656 159.441406 255.011719 159.4375 C 260.695312 159.4375 266.375 159.441406 272.058594 159.441406 C 271.789062 159.730469 271.523438 160.019531 271.253906 160.304688 C 270.476562 161.132812 269.699219 161.960938 268.921875 162.789062 C 268.226562 162.441406 267.890625 162.695312 267.769531 163.425781 C 267.71875 163.746094 267.558594 164.042969 267.445312 164.351562 C 267.238281 164.476562 267 164.566406 266.835938 164.730469 C 252.359375 179.183594 237.890625 193.644531 223.425781 208.101562 C 223.246094 208.277344 223.089844 208.472656 222.925781 208.660156 C 222.882812 208.691406 222.839844 208.726562 222.796875 208.761719 C 221.359375 208.769531 219.917969 208.792969 218.480469 208.753906 C 218.292969 208.75 217.96875 208.40625 217.957031 208.203125 C 217.898438 207.1875 217.917969 206.164062 217.914062 205.144531 " fill-opacity="1" fill-rule="nonzero"></path><g clip-path="url(#1391cc770d)"><path fill="#3a3a3a" d="M 217.914062 205.144531 C 217.917969 206.164062 217.898438 207.1875 217.957031 208.203125 C 217.96875 208.40625 218.292969 208.75 218.480469 208.753906 C 219.917969 208.792969 221.359375 208.769531 222.796875 208.761719 C 222.839844 208.761719 222.886719 208.761719 222.929688 208.761719 C 232.203125 208.761719 241.476562 208.761719 250.75 208.761719 C 250.792969 208.761719 250.835938 208.761719 250.882812 208.761719 C 257.6875 208.761719 264.496094 208.761719 271.300781 208.761719 C 271.347656 208.761719 271.390625 208.761719 271.4375 208.761719 C 278.914062 208.769531 286.390625 208.773438 293.871094 208.777344 C 295.539062 208.78125 297.210938 208.769531 298.882812 208.761719 C 298.925781 208.761719 298.96875 208.761719 299.011719 208.761719 C 304.234375 208.761719 309.453125 208.761719 314.671875 208.761719 C 314.714844 208.761719 314.761719 208.761719 314.804688 208.761719 C 316.519531 208.769531 318.230469 208.789062 319.945312 208.757812 C 320.109375 208.753906 320.402344 208.449219 320.410156 208.269531 C 320.464844 207.230469 320.449219 206.183594 320.453125 205.140625 C 321.394531 205.140625 322.339844 205.09375 323.273438 205.175781 C 323.539062 205.199219 323.984375 205.597656 323.988281 205.828125 C 324.039062 208.332031 324.027344 210.839844 324.015625 213.34375 C 324.011719 213.964844 323.59375 214.027344 323.070312 214.027344 C 305.714844 214.015625 288.355469 214.015625 271 214.015625 C 252.578125 214.015625 234.152344 214.011719 215.730469 214.035156 C 214.894531 214.035156 214.632812 213.765625 214.644531 212.964844 C 214.675781 210.671875 214.664062 208.375 214.648438 206.078125 C 214.644531 205.414062 214.855469 205.078125 215.59375 205.132812 C 216.363281 205.1875 217.140625 205.144531 217.914062 205.144531 " fill-opacity="1" fill-rule="nonzero"></path></g><path fill="#3a3a3a" d="M 316.925781 149.9375 C 318.71875 149.953125 320.511719 149.984375 322.304688 149.964844 C 322.914062 149.960938 323.179688 150.128906 323.152344 150.78125 C 323.109375 151.800781 323.109375 152.824219 323.152344 153.84375 C 323.175781 154.488281 322.921875 154.695312 322.308594 154.660156 C 321.683594 154.625 321.058594 154.667969 320.429688 154.679688 C 315.210938 154.679688 309.992188 154.679688 304.769531 154.679688 C 295.453125 154.679688 286.140625 154.679688 276.824219 154.679688 C 271.097656 154.679688 265.375 154.679688 259.652344 154.683594 C 253.925781 154.679688 248.199219 154.679688 242.472656 154.679688 C 239.089844 154.679688 235.707031 154.679688 232.320312 154.679688 C 227.527344 154.679688 222.734375 154.679688 217.941406 154.675781 C 217.277344 154.667969 216.597656 154.722656 215.945312 154.621094 C 215.679688 154.578125 215.277344 154.210938 215.261719 153.972656 C 215.191406 152.871094 215.191406 151.761719 215.261719 150.660156 C 215.277344 150.417969 215.691406 150.015625 215.933594 150.003906 C 217.765625 149.933594 219.597656 149.941406 221.433594 149.925781 C 253.21875 149.925781 285.003906 149.925781 316.789062 149.929688 C 316.835938 149.933594 316.882812 149.9375 316.925781 149.9375 " fill-opacity="1" fill-rule="nonzero"></path><path fill="#6cbd05" d="M 254.890625 159.445312 C 254.722656 159.628906 254.566406 159.824219 254.386719 160 C 242.460938 171.917969 230.53125 183.839844 218.597656 195.757812 C 218.410156 195.945312 218.183594 196.089844 217.972656 196.257812 C 217.980469 190.5 217.992188 184.746094 218 178.992188 C 218.230469 178.828125 218.496094 178.695312 218.691406 178.5 C 224.886719 172.320312 231.070312 166.136719 237.257812 159.953125 C 237.417969 159.792969 237.558594 159.613281 237.710938 159.441406 C 237.753906 159.4375 237.796875 159.4375 237.835938 159.4375 C 243.519531 159.441406 249.207031 159.441406 254.890625 159.445312 " fill-opacity="1" fill-rule="nonzero"></path><g clip-path="url(#7701c6d5b3)"><path fill="#3a3a3a" d="M 244.972656 143.90625 C 244.980469 138.730469 244.976562 133.558594 245.011719 128.386719 C 245.015625 128.039062 245.195312 127.621094 245.433594 127.371094 C 246.398438 126.359375 247.261719 125.035156 248.460938 124.535156 C 249.636719 124.042969 251.171875 124.40625 252.546875 124.40625 C 264.34375 124.40625 276.136719 124.402344 287.933594 124.429688 C 288.347656 124.429688 288.847656 124.664062 289.160156 124.949219 C 290.132812 125.832031 291.054688 126.773438 291.953125 127.730469 C 292.179688 127.972656 292.351562 128.367188 292.355469 128.695312 C 292.386719 133.761719 292.382812 138.832031 292.390625 143.902344 C 291 143.894531 289.609375 143.886719 288.21875 143.882812 C 288.222656 138.996094 288.230469 134.113281 288.203125 129.230469 C 288.199219 129.027344 287.828125 128.65625 287.628906 128.652344 C 274.949219 128.625 262.273438 128.625 249.59375 128.652344 C 249.394531 128.65625 249.019531 129.027344 249.019531 129.226562 C 248.992188 134.113281 249 138.996094 249.003906 143.878906 C 247.660156 143.886719 246.316406 143.898438 244.972656 143.90625 " fill-opacity="1" fill-rule="nonzero"></path></g><path fill="#6d7c5b" d="M 288.21875 143.882812 C 289.609375 143.886719 291 143.894531 292.390625 143.902344 C 294.75 143.902344 297.105469 143.898438 299.464844 143.898438 C 302.570312 143.902344 305.675781 143.90625 308.777344 143.90625 C 310.925781 143.902344 313.074219 143.894531 315.222656 143.898438 C 315.972656 143.902344 316.8125 144.753906 316.808594 145.480469 C 316.804688 146 316.792969 146.523438 316.78125 147.042969 C 285.007812 147.042969 253.230469 147.042969 221.453125 147.042969 C 221.445312 146.542969 221.429688 146.042969 221.425781 145.542969 C 221.421875 144.738281 222.261719 143.902344 223.085938 143.898438 C 225.109375 143.894531 227.136719 143.898438 229.160156 143.902344 C 232.265625 143.902344 235.367188 143.902344 238.472656 143.90625 C 240.640625 143.90625 242.804688 143.90625 244.972656 143.90625 C 246.316406 143.898438 247.660156 143.886719 249.003906 143.878906 C 250.34375 143.886719 251.6875 143.894531 253.027344 143.902344 C 263.464844 143.902344 273.898438 143.902344 284.335938 143.90625 C 285.628906 143.898438 286.925781 143.890625 288.21875 143.882812 " fill-opacity="1" fill-rule="nonzero"></path><path fill="#596a45" d="M 221.453125 147.042969 C 253.230469 147.042969 285.007812 147.042969 316.78125 147.042969 C 316.796875 147.960938 316.8125 148.875 316.828125 149.792969 C 316.8125 149.835938 316.800781 149.882812 316.789062 149.929688 C 285.003906 149.925781 253.21875 149.925781 221.433594 149.925781 C 221.441406 148.964844 221.445312 148.003906 221.453125 147.042969 " fill-opacity="1" fill-rule="nonzero"></path><path fill="#7ec523" d="M 314.671875 208.761719 C 309.453125 208.761719 304.234375 208.761719 299.011719 208.761719 C 299.011719 208.726562 299.007812 208.691406 299.007812 208.660156 C 299.144531 208.503906 299.273438 208.339844 299.417969 208.191406 C 306.171875 201.4375 312.925781 194.6875 319.691406 187.945312 C 319.882812 187.75 320.15625 187.636719 320.394531 187.488281 C 320.40625 190.964844 320.421875 194.4375 320.429688 197.914062 C 320.429688 199.660156 320.417969 201.410156 320.410156 203.15625 C 320.316406 203.195312 320.199219 203.214844 320.132812 203.28125 C 318.351562 205.070312 316.574219 206.863281 314.800781 208.65625 C 314.757812 208.691406 314.714844 208.726562 314.671875 208.761719 " fill-opacity="1" fill-rule="nonzero"></path><path fill="#7ec523" d="M 237.710938 159.441406 C 237.558594 159.613281 237.417969 159.792969 237.257812 159.953125 C 231.070312 166.136719 224.886719 172.320312 218.691406 178.5 C 218.496094 178.695312 218.230469 178.828125 218 178.992188 C 217.980469 176.621094 217.957031 174.25 217.949219 171.882812 C 217.941406 170.863281 217.964844 169.84375 217.972656 168.828125 C 218.195312 168.691406 218.449219 168.589844 218.628906 168.414062 C 221.429688 165.628906 224.226562 162.835938 227.015625 160.039062 C 227.183594 159.867188 227.300781 159.644531 227.445312 159.445312 C 227.523438 159.441406 227.601562 159.4375 227.683594 159.433594 C 231.023438 159.4375 234.367188 159.4375 237.710938 159.441406 " fill-opacity="1" fill-rule="nonzero"></path><path fill="#74b423" d="M 304.769531 154.679688 C 309.992188 154.679688 315.210938 154.679688 320.429688 154.679688 C 320.421875 156.265625 320.414062 157.851562 320.402344 159.4375 C 313.644531 159.4375 306.886719 159.4375 300.128906 159.433594 C 300.296875 159.25 300.453125 159.058594 300.628906 158.882812 C 302.007812 157.480469 303.390625 156.082031 304.769531 154.679688 " fill-opacity="1" fill-rule="nonzero"></path><path fill="#61aa04" d="M 227.683594 159.433594 C 227.601562 159.4375 227.523438 159.441406 227.445312 159.445312 C 224.289062 159.441406 221.136719 159.4375 217.984375 159.433594 C 217.972656 157.847656 217.957031 156.261719 217.941406 154.675781 C 222.734375 154.679688 227.527344 154.679688 232.320312 154.679688 C 232.171875 154.851562 232.03125 155.027344 231.871094 155.1875 C 230.476562 156.605469 229.078125 158.019531 227.683594 159.433594 " fill-opacity="1" fill-rule="nonzero"></path><path fill="#3b3b3b" d="M 308.777344 143.90625 C 305.675781 143.90625 302.570312 143.902344 299.464844 143.898438 C 299.484375 141.855469 299.5 139.816406 299.519531 137.773438 C 302.585938 137.777344 305.648438 137.78125 308.714844 137.785156 C 308.738281 139.824219 308.757812 141.867188 308.777344 143.90625 " fill-opacity="1" fill-rule="nonzero"></path><path fill="#3b3b3b" d="M 238.472656 143.90625 C 235.367188 143.902344 232.265625 143.902344 229.160156 143.902344 C 229.179688 141.859375 229.195312 139.816406 229.210938 137.777344 C 232.28125 137.777344 235.347656 137.777344 238.417969 137.78125 C 238.4375 139.820312 238.453125 141.863281 238.472656 143.90625 " fill-opacity="1" fill-rule="nonzero"></path><path fill="#6cbd05" d="M 217.984375 159.433594 C 221.136719 159.4375 224.289062 159.441406 227.445312 159.445312 C 227.300781 159.644531 227.183594 159.867188 227.015625 160.039062 C 224.226562 162.835938 221.429688 165.628906 218.628906 168.414062 C 218.449219 168.589844 218.195312 168.691406 217.972656 168.828125 C 217.976562 165.695312 217.980469 162.566406 217.984375 159.433594 " fill-opacity="1" fill-rule="nonzero"></path><path fill="#5b5b5b" d="M 308.714844 137.785156 C 305.648438 137.78125 302.585938 137.777344 299.519531 137.773438 C 299.546875 137.285156 299.457031 136.75 299.632812 136.320312 C 299.886719 135.710938 300.382812 135.394531 301.15625 135.421875 C 303.089844 135.496094 305.027344 135.445312 306.960938 135.445312 C 308.25 135.445312 308.765625 135.976562 308.75 137.289062 C 308.75 137.453125 308.726562 137.617188 308.714844 137.785156 " fill-opacity="1" fill-rule="nonzero"></path><path fill="#5b5b5b" d="M 238.417969 137.78125 C 235.347656 137.777344 232.28125 137.777344 229.210938 137.777344 C 229.277344 137.238281 229.257812 136.667969 229.4375 136.171875 C 229.65625 135.570312 230.191406 135.414062 230.851562 135.429688 C 232.804688 135.476562 234.761719 135.453125 236.714844 135.453125 C 237.921875 135.457031 238.457031 136 238.449219 137.222656 C 238.449219 137.40625 238.429688 137.59375 238.417969 137.78125 " fill-opacity="1" fill-rule="nonzero"></path><path fill="#6cbd05" d="M 314.800781 208.65625 C 316.574219 206.863281 318.351562 205.070312 320.132812 203.28125 C 320.199219 203.214844 320.316406 203.195312 320.410156 203.15625 C 320.425781 203.816406 320.441406 204.480469 320.453125 205.140625 C 320.449219 206.183594 320.464844 207.230469 320.410156 208.269531 C 320.402344 208.449219 320.109375 208.753906 319.945312 208.757812 C 318.230469 208.789062 316.519531 208.769531 314.804688 208.761719 C 314.804688 208.726562 314.800781 208.691406 314.800781 208.65625 " fill-opacity="1" fill-rule="nonzero"></path><path fill="#dedfdd" d="M 316.789062 149.929688 C 316.800781 149.882812 316.8125 149.835938 316.828125 149.792969 C 316.859375 149.839844 316.894531 149.890625 316.925781 149.9375 C 316.882812 149.9375 316.835938 149.933594 316.789062 149.929688 " fill-opacity="1" fill-rule="nonzero"></path><path fill="#6cbd05" d="M 250.75 208.761719 C 241.476562 208.761719 232.203125 208.761719 222.929688 208.761719 C 222.925781 208.726562 222.925781 208.691406 222.925781 208.660156 C 223.089844 208.472656 223.246094 208.277344 223.425781 208.101562 C 237.890625 193.644531 252.359375 179.183594 266.835938 164.730469 C 267 164.566406 267.238281 164.476562 267.445312 164.351562 C 267.410156 164.492188 267.386719 164.636719 267.34375 164.773438 C 265.429688 170.839844 263.515625 176.90625 261.582031 182.964844 C 261.433594 183.425781 261.496094 183.609375 261.976562 183.746094 C 263.242188 184.109375 264.496094 184.507812 265.734375 184.9375 C 265.914062 185 266.152344 185.371094 266.105469 185.515625 C 264.890625 189.394531 263.644531 193.265625 262.402344 197.136719 C 262.363281 197.226562 262.324219 197.3125 262.289062 197.398438 L 262.296875 197.402344 C 262.140625 197.488281 261.949219 197.542969 261.828125 197.664062 C 258.21875 201.257812 254.621094 204.855469 251.019531 208.457031 C 250.960938 208.515625 250.921875 208.589844 250.875 208.65625 C 250.832031 208.691406 250.789062 208.726562 250.75 208.761719 " fill-opacity="1" fill-rule="nonzero"></path><path fill="#6cbd05" d="M 268.921875 162.789062 C 269.699219 161.960938 270.476562 161.132812 271.253906 160.304688 C 271.523438 160.019531 271.789062 159.730469 272.058594 159.441406 C 272.101562 159.441406 272.140625 159.4375 272.183594 159.4375 C 281.421875 159.441406 290.65625 159.445312 299.890625 159.445312 C 299.734375 159.660156 299.601562 159.898438 299.417969 160.085938 C 288.757812 170.746094 278.09375 181.402344 267.425781 192.050781 C 267.242188 192.238281 266.996094 192.359375 266.78125 192.511719 C 266.832031 192.398438 266.871094 192.28125 266.933594 192.171875 C 269.421875 187.875 271.902344 183.574219 274.410156 179.289062 C 274.714844 178.769531 274.617188 178.621094 274.066406 178.46875 C 272.824219 178.121094 271.605469 177.675781 270.359375 177.324219 C 269.785156 177.160156 269.722656 176.90625 269.894531 176.375 C 271.121094 172.585938 272.300781 168.78125 273.535156 164.996094 C 273.722656 164.421875 273.574219 164.246094 273.042969 164.089844 C 271.660156 163.6875 270.292969 163.226562 268.921875 162.789062 " fill-opacity="1" fill-rule="nonzero"></path><path fill="#fbfe00" d="M 268.921875 162.789062 C 270.292969 163.226562 271.660156 163.6875 273.042969 164.089844 C 273.574219 164.246094 273.722656 164.421875 273.535156 164.996094 C 272.300781 168.78125 271.121094 172.585938 269.894531 176.375 C 269.722656 176.90625 269.785156 177.160156 270.359375 177.324219 C 271.605469 177.675781 272.824219 178.121094 274.066406 178.46875 C 274.617188 178.621094 274.714844 178.769531 274.410156 179.289062 C 271.902344 183.574219 269.421875 187.875 266.933594 192.171875 C 266.871094 192.28125 266.832031 192.398438 266.78125 192.511719 C 265.214844 195.191406 263.65625 197.871094 262.074219 200.539062 C 261.96875 200.714844 261.699219 200.789062 261.503906 200.910156 C 261.488281 200.699219 261.414062 200.46875 261.464844 200.277344 C 261.722656 199.3125 262.015625 198.359375 262.296875 197.402344 C 262.296875 197.402344 262.289062 197.398438 262.289062 197.398438 C 262.324219 197.3125 262.363281 197.226562 262.402344 197.136719 C 263.644531 193.265625 264.890625 189.394531 266.105469 185.515625 C 266.152344 185.371094 265.914062 185 265.734375 184.9375 C 264.496094 184.507812 263.242188 184.109375 261.976562 183.746094 C 261.496094 183.609375 261.433594 183.425781 261.582031 182.964844 C 263.515625 176.90625 265.429688 170.839844 267.34375 164.773438 C 267.386719 164.636719 267.410156 164.492188 267.445312 164.351562 C 267.558594 164.042969 267.71875 163.746094 267.769531 163.425781 C 267.890625 162.695312 268.226562 162.441406 268.921875 162.789062 " fill-opacity="1" fill-rule="nonzero"></path><path fill="#61aa04" d="M 299.890625 159.445312 C 290.65625 159.445312 281.421875 159.441406 272.183594 159.4375 C 272.347656 159.253906 272.503906 159.0625 272.679688 158.882812 C 274.058594 157.480469 275.441406 156.082031 276.824219 154.679688 C 286.140625 154.679688 295.453125 154.679688 304.769531 154.679688 C 303.390625 156.082031 302.007812 157.480469 300.628906 158.882812 C 300.453125 159.058594 300.296875 159.25 300.128906 159.433594 C 300.050781 159.4375 299.972656 159.441406 299.890625 159.445312 " fill-opacity="1" fill-rule="nonzero"></path><path fill="#70aa27" d="M 250.75 208.761719 C 250.789062 208.726562 250.832031 208.691406 250.875 208.65625 C 250.878906 208.691406 250.878906 208.726562 250.882812 208.761719 C 250.835938 208.761719 250.792969 208.761719 250.75 208.761719 " fill-opacity="1" fill-rule="nonzero"></path><path fill="#62a40f" d="M 271.4375 208.761719 C 271.390625 208.761719 271.347656 208.761719 271.300781 208.761719 C 271.34375 208.726562 271.386719 208.691406 271.429688 208.652344 C 271.433594 208.691406 271.4375 208.726562 271.4375 208.761719 " fill-opacity="1" fill-rule="nonzero"></path><path fill="#70aa27" d="M 299.007812 208.660156 C 299.007812 208.691406 299.011719 208.726562 299.011719 208.761719 C 298.96875 208.761719 298.925781 208.761719 298.882812 208.761719 C 298.925781 208.726562 298.964844 208.691406 299.007812 208.660156 " fill-opacity="1" fill-rule="nonzero"></path><path fill="#74b423" d="M 276.824219 154.679688 C 275.441406 156.082031 274.058594 157.480469 272.679688 158.882812 C 272.503906 159.0625 272.347656 159.253906 272.183594 159.4375 C 272.140625 159.4375 272.101562 159.441406 272.058594 159.441406 C 266.375 159.441406 260.695312 159.4375 255.011719 159.4375 C 255.160156 159.269531 255.304688 159.089844 255.464844 158.929688 C 256.859375 157.511719 258.253906 156.097656 259.652344 154.683594 C 265.375 154.679688 271.097656 154.679688 276.824219 154.679688 " fill-opacity="1" fill-rule="nonzero"></path><path fill="#61aa04" d="M 259.652344 154.683594 C 258.253906 156.097656 256.859375 157.511719 255.464844 158.929688 C 255.304688 159.089844 255.160156 159.269531 255.011719 159.4375 C 254.972656 159.441406 254.929688 159.441406 254.890625 159.445312 C 249.207031 159.441406 243.519531 159.441406 237.835938 159.4375 C 238 159.253906 238.160156 159.0625 238.332031 158.882812 C 239.710938 157.480469 241.09375 156.082031 242.472656 154.679688 C 248.199219 154.679688 253.925781 154.679688 259.652344 154.683594 " fill-opacity="1" fill-rule="nonzero"></path><path fill="#62a40f" d="M 222.925781 208.660156 C 222.925781 208.691406 222.925781 208.726562 222.929688 208.761719 C 222.886719 208.761719 222.839844 208.761719 222.796875 208.761719 C 222.839844 208.726562 222.882812 208.691406 222.925781 208.660156 " fill-opacity="1" fill-rule="nonzero"></path><path fill="#62a40f" d="M 314.800781 208.65625 C 314.800781 208.691406 314.804688 208.726562 314.804688 208.761719 C 314.761719 208.761719 314.714844 208.761719 314.671875 208.761719 C 314.714844 208.726562 314.757812 208.691406 314.800781 208.65625 " fill-opacity="1" fill-rule="nonzero"></path><path fill="#74b423" d="M 242.472656 154.679688 C 241.09375 156.082031 239.710938 157.480469 238.332031 158.882812 C 238.160156 159.0625 238 159.253906 237.835938 159.4375 C 237.796875 159.4375 237.753906 159.4375 237.710938 159.441406 C 234.367188 159.4375 231.023438 159.4375 227.683594 159.433594 C 229.078125 158.019531 230.476562 156.605469 231.871094 155.1875 C 232.03125 155.027344 232.171875 154.851562 232.320312 154.679688 C 235.707031 154.679688 239.089844 154.679688 242.472656 154.679688 " fill-opacity="1" fill-rule="nonzero"></path><path fill="#2a2a2a" d="M 288.21875 143.882812 C 286.925781 143.890625 285.628906 143.898438 284.335938 143.90625 C 284.332031 139.941406 284.328125 135.972656 284.324219 132.007812 C 284.289062 131.972656 284.253906 131.9375 284.214844 131.902344 C 273.945312 131.890625 263.675781 131.878906 253.402344 131.890625 C 253.273438 131.890625 253.03125 132.171875 253.03125 132.324219 C 253.015625 136.183594 253.023438 140.042969 253.027344 143.902344 C 251.6875 143.894531 250.34375 143.886719 249.003906 143.878906 C 249 138.996094 248.992188 134.113281 249.019531 129.226562 C 249.019531 129.027344 249.394531 128.65625 249.59375 128.652344 C 262.273438 128.625 274.949219 128.625 287.628906 128.652344 C 287.828125 128.65625 288.199219 129.027344 288.203125 129.230469 C 288.230469 134.113281 288.222656 138.996094 288.21875 143.882812 " fill-opacity="1" fill-rule="nonzero"></path><path fill="#7ec523" d="M 262.402344 197.136719 C 262.363281 197.226562 262.324219 197.3125 262.289062 197.398438 C 262.324219 197.3125 262.363281 197.226562 262.402344 197.136719 " fill-opacity="1" fill-rule="nonzero"></path><g clip-path="url(#cdee1e1ce4)"><path fill="#ffbe71" d="M 68.761719 130.757812 L 68.761719 208.5625 C 68.761719 211.53125 76.484375 213.9375 86.011719 213.9375 C 95.539062 213.9375 103.261719 211.53125 103.261719 208.5625 L 103.261719 130.757812 L 68.761719 130.757812 " fill-opacity="1" fill-rule="nonzero"></path></g><g clip-path="url(#a54eed925d)"><path fill="#ff8d4d" d="M 92.738281 130.757812 L 92.738281 213.515625 C 98.921875 212.699219 103.261719 210.789062 103.261719 208.5625 L 103.261719 130.757812 L 92.738281 130.757812 " fill-opacity="1" fill-rule="nonzero"></path></g><g clip-path="url(#22a145aad0)"><path fill="#ff6161" d="M 103.261719 156.367188 C 103.242188 156.4375 103.230469 156.511719 103.230469 156.589844 C 103.230469 157.328125 102.003906 158.554688 98.539062 159.585938 C 95.207031 160.578125 90.757812 161.125 86.011719 161.125 C 81.269531 161.125 76.816406 160.578125 73.484375 159.585938 C 70.019531 158.554688 68.792969 157.328125 68.792969 156.589844 C 68.792969 156.511719 68.78125 156.4375 68.761719 156.367188 L 68.761719 159.269531 C 69.75 160 71.171875 160.644531 73.003906 161.191406 C 76.492188 162.230469 81.109375 162.800781 86.011719 162.800781 C 90.914062 162.800781 95.53125 162.230469 99.019531 161.191406 C 100.851562 160.644531 102.273438 160 103.261719 159.269531 L 103.261719 156.367188 " fill-opacity="1" fill-rule="nonzero"></path></g><g clip-path="url(#a79452e2d6)"><path fill="#ffd473" d="M 103.261719 130.757812 C 103.261719 133.726562 95.539062 136.132812 86.011719 136.132812 C 76.484375 136.132812 68.761719 133.726562 68.761719 130.757812 C 68.761719 127.789062 76.484375 125.382812 86.011719 125.382812 C 95.539062 125.382812 103.261719 127.789062 103.261719 130.757812 " fill-opacity="1" fill-rule="nonzero"></path></g><path fill="#7c7c7c" d="M 97.921875 127.882812 C 94.753906 126.894531 90.523438 126.351562 86.011719 126.351562 C 81.5 126.351562 77.269531 126.894531 74.101562 127.882812 C 70.875 128.890625 69.730469 130.0625 69.730469 130.757812 C 69.730469 131.457031 70.875 132.628906 74.101562 133.632812 C 77.269531 134.621094 81.5 135.164062 86.011719 135.164062 C 90.523438 135.164062 94.753906 134.621094 97.921875 133.632812 C 101.148438 132.628906 102.292969 131.457031 102.292969 130.757812 C 102.292969 130.0625 101.148438 128.890625 97.921875 127.882812 " fill-opacity="1" fill-rule="nonzero"></path><path fill="#c4c4c4" d="M 78.871094 126.382812 L 78.871094 130.171875 C 78.871094 131.398438 82.066406 132.398438 86.011719 132.398438 C 89.957031 132.398438 93.15625 131.398438 93.15625 130.171875 L 93.15625 126.382812 L 78.871094 126.382812 " fill-opacity="1" fill-rule="nonzero"></path><g clip-path="url(#dc9479fc43)"><path fill="#e0e0e0" d="M 93.15625 126.382812 C 93.15625 127.609375 89.957031 128.605469 86.011719 128.605469 C 82.066406 128.605469 78.871094 127.609375 78.871094 126.382812 C 78.871094 125.152344 82.066406 124.15625 86.011719 124.15625 C 89.957031 124.15625 93.15625 125.152344 93.15625 126.382812 " fill-opacity="1" fill-rule="nonzero"></path></g><path fill="#ffffff" d="M 86.875 152.394531 C 84.816406 152.394531 83.003906 151.332031 81.957031 149.722656 C 82.03125 147.148438 82.058594 144.925781 82.066406 143.171875 C 83.113281 141.671875 84.84375 140.683594 86.808594 140.660156 C 86.832031 140.660156 86.855469 140.660156 86.875 140.660156 C 90.082031 140.660156 92.699219 143.242188 92.738281 146.460938 C 92.773438 149.699219 90.179688 152.359375 86.941406 152.394531 C 86.921875 152.394531 86.898438 152.394531 86.875 152.394531 " fill-opacity="1" fill-rule="nonzero"></path><path fill="#ffbe71" d="M 90.9375 145.304688 L 88.035156 145.339844 L 88 142.4375 L 85.65625 142.460938 L 85.6875 145.367188 L 82.785156 145.402344 L 82.8125 147.75 L 85.714844 147.714844 L 85.75 150.621094 L 88.097656 150.59375 L 88.0625 147.6875 L 90.964844 147.65625 L 90.9375 145.304688 " fill-opacity="1" fill-rule="nonzero"></path><path fill="#ffffff" d="M 87.292969 208.9375 C 84.085938 208.9375 81.46875 206.355469 81.429688 203.136719 C 81.394531 199.894531 83.988281 197.238281 87.226562 197.203125 C 87.25 197.203125 87.269531 197.199219 87.292969 197.199219 C 89.757812 197.199219 91.871094 198.726562 92.738281 200.890625 L 92.738281 205.246094 C 91.882812 207.386719 89.804688 208.90625 87.359375 208.9375 C 87.335938 208.9375 87.316406 208.9375 87.292969 208.9375 " fill-opacity="1" fill-rule="nonzero"></path><path fill="#ffffff" d="M 92.738281 205.246094 L 92.738281 200.890625 C 93 201.542969 93.144531 202.253906 93.152344 203 C 93.164062 203.792969 93.015625 204.554688 92.738281 205.246094 " fill-opacity="1" fill-rule="nonzero"></path><path fill="#ffbe71" d="M 91.355469 201.847656 L 83.203125 201.941406 L 83.230469 204.289062 L 91.382812 204.195312 L 91.355469 201.847656 " fill-opacity="1" fill-rule="nonzero"></path><g clip-path="url(#95e8f897c6)"><g clip-path="url(#cd85d19839)"><g clip-path="url(#5cf68559f4)"><path fill="url(#e32e81c91d)" d="M 82.082031 135.859375 L 69.941406 135.859375 L 69.941406 208.414062 L 82.082031 208.414062 Z M 82.082031 135.859375 " fill-rule="nonzero"></path></g></g></g><g clip-path="url(#ff0ebfb5f5)"><g clip-path="url(#9ad347387b)"><g clip-path="url(#b1052bce14)"><path fill="url(#e416ef3ace)" d="M 81.425781 158.050781 L 69.941406 158.050781 L 69.941406 162.621094 L 81.425781 162.621094 Z M 81.425781 158.050781 " fill-rule="nonzero"></path></g></g></g><g clip-path="url(#63be9cab27)"><g clip-path="url(#b21c87e10f)"><g clip-path="url(#fa08104457)"><path fill="#ffffff" d="M 82.066406 143.171875 L 81 143.171875 L 81 149.722656 L 82.066406 149.722656 Z M 82.066406 143.171875 " fill-opacity="1" fill-rule="nonzero"></path></g></g></g><g fill="#000000" fill-opacity="1"><g transform="translate(41.810507, 103.401609)"><g><path d="M 4.703125 0.125 C 3.910156 0.125 3.210938 -0.0351562 2.609375 -0.359375 C 2.003906 -0.691406 1.53125 -1.1875 1.1875 -1.84375 C 0.84375 -2.507812 0.671875 -3.332031 0.671875 -4.3125 C 0.671875 -5.28125 0.84375 -6.09375 1.1875 -6.75 C 1.53125 -7.414062 2.003906 -7.910156 2.609375 -8.234375 C 3.210938 -8.566406 3.910156 -8.734375 4.703125 -8.734375 C 5.535156 -8.734375 6.238281 -8.570312 6.8125 -8.25 C 7.394531 -7.925781 7.8125 -7.429688 8.0625 -6.765625 L 6.8125 -6 L 6.671875 -6.015625 C 6.484375 -6.460938 6.226562 -6.78125 5.90625 -6.96875 C 5.59375 -7.164062 5.191406 -7.265625 4.703125 -7.265625 C 3.992188 -7.265625 3.4375 -7.023438 3.03125 -6.546875 C 2.632812 -6.078125 2.4375 -5.332031 2.4375 -4.3125 C 2.4375 -3.28125 2.632812 -2.523438 3.03125 -2.046875 C 3.4375 -1.578125 3.992188 -1.34375 4.703125 -1.34375 C 5.828125 -1.34375 6.515625 -1.890625 6.765625 -2.984375 L 6.90625 -2.984375 L 8.15625 -2.328125 C 7.925781 -1.503906 7.523438 -0.890625 6.953125 -0.484375 C 6.390625 -0.078125 5.640625 0.125 4.703125 0.125 Z M 4.703125 0.125 "></path></g></g></g><g fill="#000000" fill-opacity="1"><g transform="translate(50.248081, 103.401609)"><g><path d="M 6.421875 -2.875 L 2.25 -2.875 C 2.289062 -2.3125 2.445312 -1.898438 2.71875 -1.640625 C 3 -1.390625 3.378906 -1.265625 3.859375 -1.265625 C 4.222656 -1.265625 4.519531 -1.332031 4.75 -1.46875 C 4.988281 -1.601562 5.175781 -1.816406 5.3125 -2.109375 L 5.4375 -2.109375 L 6.53125 -1.40625 C 6.3125 -0.945312 5.988281 -0.578125 5.5625 -0.296875 C 5.132812 -0.015625 4.566406 0.125 3.859375 0.125 C 3.179688 0.125 2.597656 0 2.109375 -0.25 C 1.617188 -0.507812 1.238281 -0.890625 0.96875 -1.390625 C 0.707031 -1.898438 0.578125 -2.519531 0.578125 -3.25 C 0.578125 -3.988281 0.71875 -4.609375 1 -5.109375 C 1.28125 -5.617188 1.65625 -6 2.125 -6.25 C 2.601562 -6.5 3.140625 -6.625 3.734375 -6.625 C 4.648438 -6.625 5.351562 -6.378906 5.84375 -5.890625 C 6.332031 -5.398438 6.578125 -4.6875 6.578125 -3.75 C 6.578125 -3.40625 6.566406 -3.140625 6.546875 -2.953125 Z M 5.015625 -3.9375 C 5.003906 -4.425781 4.890625 -4.785156 4.671875 -5.015625 C 4.460938 -5.242188 4.148438 -5.359375 3.734375 -5.359375 C 2.910156 -5.359375 2.425781 -4.882812 2.28125 -3.9375 Z M 5.015625 -3.9375 "></path></g></g></g><g fill="#000000" fill-opacity="1"><g transform="translate(57.302933, 103.401609)"><g><path d="M 2.703125 0.125 C 2.109375 0.125 1.65625 -0.03125 1.34375 -0.34375 C 1.039062 -0.664062 0.890625 -1.148438 0.890625 -1.796875 L 0.890625 -9.109375 L 2.53125 -9.109375 L 2.53125 -1.859375 C 2.53125 -1.460938 2.691406 -1.265625 3.015625 -1.265625 C 3.109375 -1.265625 3.210938 -1.28125 3.328125 -1.3125 L 3.40625 -1.28125 L 3.546875 -0.03125 C 3.460938 0.0195312 3.34375 0.0546875 3.1875 0.078125 C 3.039062 0.109375 2.878906 0.125 2.703125 0.125 Z M 2.703125 0.125 "></path></g></g></g><g fill="#000000" fill-opacity="1"><g transform="translate(61.033353, 103.401609)"><g><path d="M 2.703125 0.125 C 2.109375 0.125 1.65625 -0.03125 1.34375 -0.34375 C 1.039062 -0.664062 0.890625 -1.148438 0.890625 -1.796875 L 0.890625 -9.109375 L 2.53125 -9.109375 L 2.53125 -1.859375 C 2.53125 -1.460938 2.691406 -1.265625 3.015625 -1.265625 C 3.109375 -1.265625 3.210938 -1.28125 3.328125 -1.3125 L 3.40625 -1.28125 L 3.546875 -0.03125 C 3.460938 0.0195312 3.34375 0.0546875 3.1875 0.078125 C 3.039062 0.109375 2.878906 0.125 2.703125 0.125 Z M 2.703125 0.125 "></path></g></g></g><g fill="#000000" fill-opacity="1"><g transform="translate(64.763773, 103.401609)"><g></g></g></g><g fill="#000000" fill-opacity="1"><g transform="translate(67.605722, 103.401609)"><g><path d="M 2.625 1.234375 C 2.09375 0.566406 1.664062 -0.171875 1.34375 -0.984375 C 1.019531 -1.796875 0.859375 -2.78125 0.859375 -3.9375 C 0.859375 -5.09375 1.019531 -6.078125 1.34375 -6.890625 C 1.664062 -7.703125 2.09375 -8.441406 2.625 -9.109375 L 3.890625 -9.109375 L 3.90625 -8.984375 C 3.488281 -8.253906 3.160156 -7.5 2.921875 -6.71875 C 2.691406 -5.9375 2.578125 -5.007812 2.578125 -3.9375 C 2.578125 -2.863281 2.691406 -1.9375 2.921875 -1.15625 C 3.160156 -0.375 3.488281 0.378906 3.90625 1.109375 L 3.890625 1.234375 Z M 2.625 1.234375 "></path></g></g></g><g fill="#000000" fill-opacity="1"><g transform="translate(71.883353, 103.401609)"><g><path d="M 3.8125 0.125 C 3.21875 0.125 2.6875 0.0507812 2.21875 -0.09375 C 1.757812 -0.238281 1.375 -0.429688 1.0625 -0.671875 C 0.75 -0.910156 0.507812 -1.175781 0.34375 -1.46875 L 1.28125 -2.609375 L 1.4375 -2.609375 C 1.6875 -2.222656 2.007812 -1.914062 2.40625 -1.6875 C 2.8125 -1.457031 3.28125 -1.34375 3.8125 -1.34375 C 4.269531 -1.34375 4.613281 -1.4375 4.84375 -1.625 C 5.070312 -1.820312 5.1875 -2.09375 5.1875 -2.4375 C 5.1875 -2.632812 5.148438 -2.800781 5.078125 -2.9375 C 5.003906 -3.082031 4.878906 -3.203125 4.703125 -3.296875 C 4.535156 -3.398438 4.304688 -3.484375 4.015625 -3.546875 L 2.90625 -3.8125 C 2.132812 -3.976562 1.554688 -4.265625 1.171875 -4.671875 C 0.796875 -5.085938 0.609375 -5.625 0.609375 -6.28125 C 0.609375 -6.769531 0.726562 -7.195312 0.96875 -7.5625 C 1.21875 -7.9375 1.570312 -8.222656 2.03125 -8.421875 C 2.5 -8.628906 3.054688 -8.734375 3.703125 -8.734375 C 4.367188 -8.734375 4.9375 -8.644531 5.40625 -8.46875 C 5.882812 -8.289062 6.285156 -8.023438 6.609375 -7.671875 L 5.765625 -6.515625 L 5.625 -6.515625 C 5.375 -6.765625 5.09375 -6.953125 4.78125 -7.078125 C 4.46875 -7.210938 4.109375 -7.28125 3.703125 -7.28125 C 3.234375 -7.28125 2.878906 -7.195312 2.640625 -7.03125 C 2.398438 -6.863281 2.28125 -6.632812 2.28125 -6.34375 C 2.28125 -6.070312 2.363281 -5.851562 2.53125 -5.6875 C 2.695312 -5.53125 2.992188 -5.410156 3.421875 -5.328125 L 4.546875 -5.09375 C 5.378906 -4.914062 5.984375 -4.613281 6.359375 -4.1875 C 6.742188 -3.769531 6.9375 -3.21875 6.9375 -2.53125 C 6.9375 -2 6.816406 -1.53125 6.578125 -1.125 C 6.347656 -0.726562 6 -0.421875 5.53125 -0.203125 C 5.0625 0.015625 4.488281 0.125 3.8125 0.125 Z M 3.8125 0.125 "></path></g></g></g><g fill="#000000" fill-opacity="1"><g transform="translate(79.273586, 103.401609)"><g><path d="M 1.75 -7.28125 C 1.457031 -7.28125 1.21875 -7.367188 1.03125 -7.546875 C 0.84375 -7.722656 0.75 -7.953125 0.75 -8.234375 C 0.75 -8.515625 0.84375 -8.742188 1.03125 -8.921875 C 1.21875 -9.097656 1.457031 -9.1875 1.75 -9.1875 C 1.945312 -9.1875 2.117188 -9.144531 2.265625 -9.0625 C 2.421875 -8.976562 2.539062 -8.863281 2.625 -8.71875 C 2.707031 -8.582031 2.75 -8.421875 2.75 -8.234375 C 2.75 -8.046875 2.707031 -7.878906 2.625 -7.734375 C 2.539062 -7.585938 2.421875 -7.472656 2.265625 -7.390625 C 2.117188 -7.316406 1.945312 -7.28125 1.75 -7.28125 Z M 0.9375 0 L 0.9375 -6.5 L 2.5625 -6.5 L 2.5625 0 Z M 0.9375 0 "></path></g></g></g><g fill="#000000" fill-opacity="1"><g transform="translate(82.768648, 103.401609)"><g><path d="M 0.9375 0 L 0.9375 -6.5 L 2.5 -6.5 L 2.5 -5.546875 L 2.625 -5.515625 C 3.03125 -6.253906 3.6875 -6.625 4.59375 -6.625 C 5.34375 -6.625 5.890625 -6.414062 6.234375 -6 C 6.585938 -5.59375 6.765625 -5 6.765625 -4.21875 L 6.765625 0 L 5.140625 0 L 5.140625 -4.015625 C 5.140625 -4.453125 5.050781 -4.765625 4.875 -4.953125 C 4.707031 -5.140625 4.429688 -5.234375 4.046875 -5.234375 C 3.578125 -5.234375 3.210938 -5.082031 2.953125 -4.78125 C 2.691406 -4.476562 2.5625 -4.003906 2.5625 -3.359375 L 2.5625 0 Z M 0.9375 0 "></path></g></g></g><g fill="#000000" fill-opacity="1"><g transform="translate(90.370702, 103.401609)"><g><path d="M 3.375 2.75 C 2.300781 2.75 1.507812 2.59375 1 2.28125 C 0.488281 1.96875 0.234375 1.53125 0.234375 0.96875 C 0.234375 0.625 0.34375 0.34375 0.5625 0.125 C 0.78125 -0.0820312 1.09375 -0.226562 1.5 -0.3125 L 1.5 -0.4375 C 1.28125 -0.5625 1.117188 -0.707031 1.015625 -0.875 C 0.921875 -1.039062 0.875 -1.226562 0.875 -1.4375 C 0.875 -1.957031 1.210938 -2.3125 1.890625 -2.5 L 1.890625 -2.625 C 1.546875 -2.820312 1.285156 -3.066406 1.109375 -3.359375 C 0.929688 -3.660156 0.84375 -4.019531 0.84375 -4.4375 C 0.84375 -4.875 0.941406 -5.253906 1.140625 -5.578125 C 1.335938 -5.910156 1.625 -6.164062 2 -6.34375 C 2.382812 -6.53125 2.847656 -6.625 3.390625 -6.625 C 3.929688 -6.625 4.363281 -6.53125 4.6875 -6.34375 C 4.882812 -6.625 5 -6.957031 5.03125 -7.34375 L 5.15625 -7.421875 L 6.328125 -7.125 C 6.285156 -6.820312 6.191406 -6.5625 6.046875 -6.34375 C 5.910156 -6.132812 5.6875 -5.953125 5.375 -5.796875 L 5.375 -5.65625 C 5.738281 -5.332031 5.921875 -4.882812 5.921875 -4.3125 C 5.921875 -3.90625 5.820312 -3.539062 5.625 -3.21875 C 5.425781 -2.90625 5.132812 -2.65625 4.75 -2.46875 C 4.363281 -2.289062 3.910156 -2.203125 3.390625 -2.203125 L 3.140625 -2.203125 C 2.984375 -2.210938 2.875 -2.21875 2.8125 -2.21875 C 2.65625 -2.21875 2.535156 -2.175781 2.453125 -2.09375 C 2.367188 -2.019531 2.328125 -1.921875 2.328125 -1.796875 C 2.328125 -1.648438 2.378906 -1.539062 2.484375 -1.46875 C 2.597656 -1.394531 2.765625 -1.351562 2.984375 -1.34375 L 4.4375 -1.296875 C 5.875 -1.242188 6.59375 -0.625 6.59375 0.5625 C 6.59375 0.988281 6.484375 1.363281 6.265625 1.6875 C 6.054688 2.007812 5.710938 2.265625 5.234375 2.453125 C 4.753906 2.648438 4.132812 2.75 3.375 2.75 Z M 3.390625 -3.34375 C 3.703125 -3.34375 3.945312 -3.4375 4.125 -3.625 C 4.300781 -3.8125 4.390625 -4.070312 4.390625 -4.40625 C 4.390625 -4.75 4.300781 -5.007812 4.125 -5.1875 C 3.945312 -5.375 3.703125 -5.46875 3.390625 -5.46875 C 3.066406 -5.46875 2.816406 -5.375 2.640625 -5.1875 C 2.472656 -5.007812 2.390625 -4.75 2.390625 -4.40625 C 2.390625 -4.0625 2.472656 -3.796875 2.640625 -3.609375 C 2.816406 -3.429688 3.066406 -3.34375 3.390625 -3.34375 Z M 3.375 1.578125 C 3.925781 1.578125 4.328125 1.492188 4.578125 1.328125 C 4.835938 1.171875 4.96875 0.96875 4.96875 0.71875 C 4.96875 0.519531 4.898438 0.367188 4.765625 0.265625 C 4.640625 0.171875 4.4375 0.125 4.15625 0.125 L 2.875 0.0625 C 2.820312 0.0625 2.773438 0.0546875 2.734375 0.046875 C 2.703125 0.046875 2.671875 0.046875 2.640625 0.046875 C 2.359375 0.046875 2.144531 0.101562 2 0.21875 C 1.863281 0.34375 1.796875 0.507812 1.796875 0.71875 C 1.796875 0.988281 1.925781 1.195312 2.1875 1.34375 C 2.445312 1.5 2.84375 1.578125 3.375 1.578125 Z M 3.375 1.578125 "></path></g></g></g><g fill="#000000" fill-opacity="1"><g transform="translate(97.11959, 103.401609)"><g><path d="M 2.703125 0.125 C 2.109375 0.125 1.65625 -0.03125 1.34375 -0.34375 C 1.039062 -0.664062 0.890625 -1.148438 0.890625 -1.796875 L 0.890625 -9.109375 L 2.53125 -9.109375 L 2.53125 -1.859375 C 2.53125 -1.460938 2.691406 -1.265625 3.015625 -1.265625 C 3.109375 -1.265625 3.210938 -1.28125 3.328125 -1.3125 L 3.40625 -1.28125 L 3.546875 -0.03125 C 3.460938 0.0195312 3.34375 0.0546875 3.1875 0.078125 C 3.039062 0.109375 2.878906 0.125 2.703125 0.125 Z M 2.703125 0.125 "></path></g></g></g><g fill="#000000" fill-opacity="1"><g transform="translate(100.85001, 103.401609)"><g><path d="M 6.421875 -2.875 L 2.25 -2.875 C 2.289062 -2.3125 2.445312 -1.898438 2.71875 -1.640625 C 3 -1.390625 3.378906 -1.265625 3.859375 -1.265625 C 4.222656 -1.265625 4.519531 -1.332031 4.75 -1.46875 C 4.988281 -1.601562 5.175781 -1.816406 5.3125 -2.109375 L 5.4375 -2.109375 L 6.53125 -1.40625 C 6.3125 -0.945312 5.988281 -0.578125 5.5625 -0.296875 C 5.132812 -0.015625 4.566406 0.125 3.859375 0.125 C 3.179688 0.125 2.597656 0 2.109375 -0.25 C 1.617188 -0.507812 1.238281 -0.890625 0.96875 -1.390625 C 0.707031 -1.898438 0.578125 -2.519531 0.578125 -3.25 C 0.578125 -3.988281 0.71875 -4.609375 1 -5.109375 C 1.28125 -5.617188 1.65625 -6 2.125 -6.25 C 2.601562 -6.5 3.140625 -6.625 3.734375 -6.625 C 4.648438 -6.625 5.351562 -6.378906 5.84375 -5.890625 C 6.332031 -5.398438 6.578125 -4.6875 6.578125 -3.75 C 6.578125 -3.40625 6.566406 -3.140625 6.546875 -2.953125 Z M 5.015625 -3.9375 C 5.003906 -4.425781 4.890625 -4.785156 4.671875 -5.015625 C 4.460938 -5.242188 4.148438 -5.359375 3.734375 -5.359375 C 2.910156 -5.359375 2.425781 -4.882812 2.28125 -3.9375 Z M 5.015625 -3.9375 "></path></g></g></g><g fill="#000000" fill-opacity="1"><g transform="translate(107.904862, 103.401609)"><g></g></g></g><g fill="#000000" fill-opacity="1"><g transform="translate(110.746811, 103.401609)"><g><path d="M 2.96875 0.125 C 2.238281 0.125 1.703125 -0.0703125 1.359375 -0.46875 C 1.015625 -0.875 0.84375 -1.445312 0.84375 -2.1875 L 0.84375 -6.5 L 2.46875 -6.5 L 2.46875 -2.390625 C 2.46875 -1.992188 2.550781 -1.703125 2.71875 -1.515625 C 2.894531 -1.335938 3.160156 -1.25 3.515625 -1.25 C 3.960938 -1.25 4.3125 -1.394531 4.5625 -1.6875 C 4.820312 -1.988281 4.953125 -2.457031 4.953125 -3.09375 L 4.953125 -6.5 L 6.578125 -6.5 L 6.578125 0 L 5.015625 0 L 5.015625 -0.953125 L 4.890625 -0.984375 C 4.679688 -0.609375 4.425781 -0.328125 4.125 -0.140625 C 3.820312 0.0351562 3.4375 0.125 2.96875 0.125 Z M 2.96875 0.125 "></path></g></g></g><g fill="#000000" fill-opacity="1"><g transform="translate(118.254722, 103.401609)"><g><path d="M 0.9375 0 L 0.9375 -6.5 L 2.5 -6.5 L 2.5 -5.546875 L 2.625 -5.515625 C 3.03125 -6.253906 3.6875 -6.625 4.59375 -6.625 C 5.34375 -6.625 5.890625 -6.414062 6.234375 -6 C 6.585938 -5.59375 6.765625 -5 6.765625 -4.21875 L 6.765625 0 L 5.140625 0 L 5.140625 -4.015625 C 5.140625 -4.453125 5.050781 -4.765625 4.875 -4.953125 C 4.707031 -5.140625 4.429688 -5.234375 4.046875 -5.234375 C 3.578125 -5.234375 3.210938 -5.082031 2.953125 -4.78125 C 2.691406 -4.476562 2.5625 -4.003906 2.5625 -3.359375 L 2.5625 0 Z M 0.9375 0 "></path></g></g></g><g fill="#000000" fill-opacity="1"><g transform="translate(125.856777, 103.401609)"><g><path d="M 1.75 -7.28125 C 1.457031 -7.28125 1.21875 -7.367188 1.03125 -7.546875 C 0.84375 -7.722656 0.75 -7.953125 0.75 -8.234375 C 0.75 -8.515625 0.84375 -8.742188 1.03125 -8.921875 C 1.21875 -9.097656 1.457031 -9.1875 1.75 -9.1875 C 1.945312 -9.1875 2.117188 -9.144531 2.265625 -9.0625 C 2.421875 -8.976562 2.539062 -8.863281 2.625 -8.71875 C 2.707031 -8.582031 2.75 -8.421875 2.75 -8.234375 C 2.75 -8.046875 2.707031 -7.878906 2.625 -7.734375 C 2.539062 -7.585938 2.421875 -7.472656 2.265625 -7.390625 C 2.117188 -7.316406 1.945312 -7.28125 1.75 -7.28125 Z M 0.9375 0 L 0.9375 -6.5 L 2.5625 -6.5 L 2.5625 0 Z M 0.9375 0 "></path></g></g></g><g fill="#000000" fill-opacity="1"><g transform="translate(129.351839, 103.401609)"><g><path d="M 4.484375 -1.546875 L 4.90625 -0.34375 C 4.726562 -0.195312 4.503906 -0.0820312 4.234375 0 C 3.972656 0.0820312 3.671875 0.125 3.328125 0.125 C 2.628906 0.125 2.097656 -0.0664062 1.734375 -0.453125 C 1.367188 -0.835938 1.1875 -1.394531 1.1875 -2.125 L 1.1875 -5.203125 L 0.1875 -5.203125 L 0.1875 -6.5 L 1.1875 -6.5 L 1.1875 -7.765625 L 2.8125 -8.03125 L 2.8125 -6.5 L 4.65625 -6.5 L 4.65625 -5.203125 L 2.8125 -5.203125 L 2.8125 -2.234375 C 2.8125 -1.910156 2.878906 -1.675781 3.015625 -1.53125 C 3.148438 -1.382812 3.34375 -1.3125 3.59375 -1.3125 C 3.882812 -1.3125 4.140625 -1.390625 4.359375 -1.546875 Z M 4.484375 -1.546875 "></path></g></g></g><g fill="#000000" fill-opacity="1"><g transform="translate(134.394382, 103.401609)"><g><path d="M 0.375 1.109375 C 0.644531 0.640625 0.875 0.164062 1.0625 -0.3125 C 1.257812 -0.789062 1.414062 -1.328125 1.53125 -1.921875 C 1.644531 -2.523438 1.703125 -3.195312 1.703125 -3.9375 C 1.703125 -4.675781 1.644531 -5.34375 1.53125 -5.9375 C 1.414062 -6.539062 1.257812 -7.082031 1.0625 -7.5625 C 0.875 -8.039062 0.644531 -8.515625 0.375 -8.984375 L 0.390625 -9.109375 L 1.640625 -9.109375 C 1.984375 -8.679688 2.28125 -8.234375 2.53125 -7.765625 C 2.789062 -7.296875 3.003906 -6.738281 3.171875 -6.09375 C 3.335938 -5.457031 3.421875 -4.738281 3.421875 -3.9375 C 3.421875 -2.78125 3.253906 -1.796875 2.921875 -0.984375 C 2.597656 -0.171875 2.171875 0.566406 1.640625 1.234375 L 0.390625 1.234375 Z M 0.375 1.109375 "></path></g></g></g><g fill="#000000" fill-opacity="1"><g transform="translate(210.371214, 103.401609)"><g><path d="M 1.125 0 L 1.125 -8.609375 L 4.796875 -8.609375 C 5.328125 -8.609375 5.773438 -8.523438 6.140625 -8.359375 C 6.503906 -8.191406 6.78125 -7.953125 6.96875 -7.640625 C 7.15625 -7.335938 7.25 -6.976562 7.25 -6.5625 C 7.25 -6.175781 7.15625 -5.835938 6.96875 -5.546875 C 6.789062 -5.253906 6.53125 -5.019531 6.1875 -4.84375 L 6.1875 -4.71875 C 6.726562 -4.582031 7.144531 -4.328125 7.4375 -3.953125 C 7.726562 -3.578125 7.875 -3.117188 7.875 -2.578125 C 7.875 -1.753906 7.625 -1.117188 7.125 -0.671875 C 6.632812 -0.222656 5.898438 0 4.921875 0 Z M 4.4375 -5.171875 C 5.226562 -5.171875 5.625 -5.53125 5.625 -6.25 C 5.625 -6.613281 5.523438 -6.882812 5.328125 -7.0625 C 5.140625 -7.238281 4.84375 -7.328125 4.4375 -7.328125 L 2.828125 -7.328125 L 2.828125 -5.171875 Z M 4.75 -1.34375 C 5.6875 -1.34375 6.15625 -1.769531 6.15625 -2.625 C 6.15625 -3.476562 5.6875 -3.90625 4.75 -3.90625 L 2.828125 -3.90625 L 2.828125 -1.34375 Z M 4.75 -1.34375 "></path></g></g></g><g fill="#000000" fill-opacity="1"><g transform="translate(218.785253, 103.401609)"><g><path d="M 2.53125 0.125 C 2.113281 0.125 1.75 0.0507812 1.4375 -0.09375 C 1.132812 -0.25 0.898438 -0.472656 0.734375 -0.765625 C 0.578125 -1.066406 0.5 -1.425781 0.5 -1.84375 C 0.5 -2.226562 0.578125 -2.550781 0.734375 -2.8125 C 0.898438 -3.070312 1.15625 -3.285156 1.5 -3.453125 C 1.851562 -3.617188 2.304688 -3.75 2.859375 -3.84375 C 3.253906 -3.90625 3.550781 -3.972656 3.75 -4.046875 C 3.945312 -4.128906 4.082031 -4.21875 4.15625 -4.3125 C 4.226562 -4.40625 4.265625 -4.523438 4.265625 -4.671875 C 4.265625 -4.878906 4.191406 -5.035156 4.046875 -5.140625 C 3.898438 -5.253906 3.660156 -5.3125 3.328125 -5.3125 C 2.960938 -5.3125 2.613281 -5.226562 2.28125 -5.0625 C 1.957031 -4.90625 1.675781 -4.691406 1.4375 -4.421875 L 1.328125 -4.421875 L 0.640625 -5.453125 C 0.972656 -5.816406 1.375 -6.101562 1.84375 -6.3125 C 2.320312 -6.519531 2.84375 -6.625 3.40625 -6.625 C 4.257812 -6.625 4.878906 -6.441406 5.265625 -6.078125 C 5.648438 -5.710938 5.84375 -5.191406 5.84375 -4.515625 L 5.84375 -1.703125 C 5.84375 -1.410156 5.972656 -1.265625 6.234375 -1.265625 C 6.328125 -1.265625 6.421875 -1.28125 6.515625 -1.3125 L 6.609375 -1.296875 L 6.71875 -0.15625 C 6.625 -0.09375 6.5 -0.0390625 6.34375 0 C 6.1875 0.03125 6.007812 0.046875 5.8125 0.046875 C 5.425781 0.046875 5.125 -0.0234375 4.90625 -0.171875 C 4.6875 -0.328125 4.53125 -0.5625 4.4375 -0.875 L 4.3125 -0.890625 C 3.988281 -0.210938 3.394531 0.125 2.53125 0.125 Z M 3.046875 -1.09375 C 3.421875 -1.09375 3.722656 -1.21875 3.953125 -1.46875 C 4.179688 -1.726562 4.296875 -2.082031 4.296875 -2.53125 L 4.296875 -3.1875 L 4.1875 -3.21875 C 4.082031 -3.132812 3.953125 -3.066406 3.796875 -3.015625 C 3.640625 -2.960938 3.410156 -2.910156 3.109375 -2.859375 C 2.753906 -2.804688 2.5 -2.707031 2.34375 -2.5625 C 2.1875 -2.414062 2.109375 -2.210938 2.109375 -1.953125 C 2.109375 -1.671875 2.191406 -1.457031 2.359375 -1.3125 C 2.523438 -1.164062 2.753906 -1.09375 3.046875 -1.09375 Z M 3.046875 -1.09375 "></path></g></g></g><g fill="#000000" fill-opacity="1"><g transform="translate(225.628283, 103.401609)"><g><path d="M 4.484375 -1.546875 L 4.90625 -0.34375 C 4.726562 -0.195312 4.503906 -0.0820312 4.234375 0 C 3.972656 0.0820312 3.671875 0.125 3.328125 0.125 C 2.628906 0.125 2.097656 -0.0664062 1.734375 -0.453125 C 1.367188 -0.835938 1.1875 -1.394531 1.1875 -2.125 L 1.1875 -5.203125 L 0.1875 -5.203125 L 0.1875 -6.5 L 1.1875 -6.5 L 1.1875 -7.765625 L 2.8125 -8.03125 L 2.8125 -6.5 L 4.65625 -6.5 L 4.65625 -5.203125 L 2.8125 -5.203125 L 2.8125 -2.234375 C 2.8125 -1.910156 2.878906 -1.675781 3.015625 -1.53125 C 3.148438 -1.382812 3.34375 -1.3125 3.59375 -1.3125 C 3.882812 -1.3125 4.140625 -1.390625 4.359375 -1.546875 Z M 4.484375 -1.546875 "></path></g></g></g><g fill="#000000" fill-opacity="1"><g transform="translate(230.670827, 103.401609)"><g><path d="M 4.484375 -1.546875 L 4.90625 -0.34375 C 4.726562 -0.195312 4.503906 -0.0820312 4.234375 0 C 3.972656 0.0820312 3.671875 0.125 3.328125 0.125 C 2.628906 0.125 2.097656 -0.0664062 1.734375 -0.453125 C 1.367188 -0.835938 1.1875 -1.394531 1.1875 -2.125 L 1.1875 -5.203125 L 0.1875 -5.203125 L 0.1875 -6.5 L 1.1875 -6.5 L 1.1875 -7.765625 L 2.8125 -8.03125 L 2.8125 -6.5 L 4.65625 -6.5 L 4.65625 -5.203125 L 2.8125 -5.203125 L 2.8125 -2.234375 C 2.8125 -1.910156 2.878906 -1.675781 3.015625 -1.53125 C 3.148438 -1.382812 3.34375 -1.3125 3.59375 -1.3125 C 3.882812 -1.3125 4.140625 -1.390625 4.359375 -1.546875 Z M 4.484375 -1.546875 "></path></g></g></g><g fill="#000000" fill-opacity="1"><g transform="translate(235.713371, 103.401609)"><g><path d="M 6.421875 -2.875 L 2.25 -2.875 C 2.289062 -2.3125 2.445312 -1.898438 2.71875 -1.640625 C 3 -1.390625 3.378906 -1.265625 3.859375 -1.265625 C 4.222656 -1.265625 4.519531 -1.332031 4.75 -1.46875 C 4.988281 -1.601562 5.175781 -1.816406 5.3125 -2.109375 L 5.4375 -2.109375 L 6.53125 -1.40625 C 6.3125 -0.945312 5.988281 -0.578125 5.5625 -0.296875 C 5.132812 -0.015625 4.566406 0.125 3.859375 0.125 C 3.179688 0.125 2.597656 0 2.109375 -0.25 C 1.617188 -0.507812 1.238281 -0.890625 0.96875 -1.390625 C 0.707031 -1.898438 0.578125 -2.519531 0.578125 -3.25 C 0.578125 -3.988281 0.71875 -4.609375 1 -5.109375 C 1.28125 -5.617188 1.65625 -6 2.125 -6.25 C 2.601562 -6.5 3.140625 -6.625 3.734375 -6.625 C 4.648438 -6.625 5.351562 -6.378906 5.84375 -5.890625 C 6.332031 -5.398438 6.578125 -4.6875 6.578125 -3.75 C 6.578125 -3.40625 6.566406 -3.140625 6.546875 -2.953125 Z M 5.015625 -3.9375 C 5.003906 -4.425781 4.890625 -4.785156 4.671875 -5.015625 C 4.460938 -5.242188 4.148438 -5.359375 3.734375 -5.359375 C 2.910156 -5.359375 2.425781 -4.882812 2.28125 -3.9375 Z M 5.015625 -3.9375 "></path></g></g></g><g fill="#000000" fill-opacity="1"><g transform="translate(242.768223, 103.401609)"><g><path d="M 0.9375 0 L 0.9375 -6.5 L 2.515625 -6.5 L 2.515625 -5.53125 L 2.640625 -5.5 C 2.796875 -5.863281 3 -6.128906 3.25 -6.296875 C 3.507812 -6.472656 3.820312 -6.5625 4.1875 -6.5625 C 4.5625 -6.5625 4.84375 -6.492188 5.03125 -6.359375 L 4.765625 -4.953125 L 4.640625 -4.9375 C 4.523438 -4.976562 4.421875 -5.007812 4.328125 -5.03125 C 4.234375 -5.050781 4.113281 -5.0625 3.96875 -5.0625 C 3.507812 -5.0625 3.160156 -4.898438 2.921875 -4.578125 C 2.679688 -4.253906 2.5625 -3.742188 2.5625 -3.046875 L 2.5625 0 Z M 0.9375 0 "></path></g></g></g><g fill="#000000" fill-opacity="1"><g transform="translate(247.857838, 103.401609)"><g><path d="M 1.4375 2.75 C 1.15625 2.75 0.898438 2.726562 0.671875 2.6875 C 0.453125 2.644531 0.269531 2.585938 0.125 2.515625 L 0.390625 1.203125 L 0.5 1.171875 C 0.59375 1.222656 0.710938 1.265625 0.859375 1.296875 C 1.003906 1.328125 1.15625 1.34375 1.3125 1.34375 C 1.570312 1.34375 1.785156 1.304688 1.953125 1.234375 C 2.128906 1.160156 2.28125 1.046875 2.40625 0.890625 C 2.53125 0.734375 2.640625 0.515625 2.734375 0.234375 L 0.140625 -6.5 L 1.84375 -6.5 L 3.46875 -1.984375 L 3.609375 -1.984375 L 5.171875 -6.5 L 6.84375 -6.5 L 4.234375 0.40625 C 4.023438 0.96875 3.796875 1.414062 3.546875 1.75 C 3.296875 2.09375 3 2.34375 2.65625 2.5 C 2.320312 2.664062 1.914062 2.75 1.4375 2.75 Z M 1.4375 2.75 "></path></g></g></g><g fill="#000000" fill-opacity="1"><g transform="translate(254.824427, 103.401609)"><g></g></g></g><g fill="#000000" fill-opacity="1"><g transform="translate(257.666376, 103.401609)"><g><path d="M 2.625 1.234375 C 2.09375 0.566406 1.664062 -0.171875 1.34375 -0.984375 C 1.019531 -1.796875 0.859375 -2.78125 0.859375 -3.9375 C 0.859375 -5.09375 1.019531 -6.078125 1.34375 -6.890625 C 1.664062 -7.703125 2.09375 -8.441406 2.625 -9.109375 L 3.890625 -9.109375 L 3.90625 -8.984375 C 3.488281 -8.253906 3.160156 -7.5 2.921875 -6.71875 C 2.691406 -5.9375 2.578125 -5.007812 2.578125 -3.9375 C 2.578125 -2.863281 2.691406 -1.9375 2.921875 -1.15625 C 3.160156 -0.375 3.488281 0.378906 3.90625 1.109375 L 3.890625 1.234375 Z M 2.625 1.234375 "></path></g></g></g><g fill="#000000" fill-opacity="1"><g transform="translate(261.944007, 103.401609)"><g><path d="M 2.6875 0 L 1.125 0 L 1.125 -8.609375 L 3.34375 -8.609375 L 5.53125 -2.28125 L 5.640625 -2.28125 L 7.8125 -8.609375 L 9.984375 -8.609375 L 9.984375 0 L 8.375 0 L 8.375 -5.6875 L 8.234375 -5.71875 L 6.234375 0 L 4.8125 0 L 2.828125 -5.71875 L 2.6875 -5.6875 Z M 2.6875 0 "></path></g></g></g><g fill="#000000" fill-opacity="1"><g transform="translate(273.047012, 103.401609)"><g><path d="M 2.96875 0.125 C 2.238281 0.125 1.703125 -0.0703125 1.359375 -0.46875 C 1.015625 -0.875 0.84375 -1.445312 0.84375 -2.1875 L 0.84375 -6.5 L 2.46875 -6.5 L 2.46875 -2.390625 C 2.46875 -1.992188 2.550781 -1.703125 2.71875 -1.515625 C 2.894531 -1.335938 3.160156 -1.25 3.515625 -1.25 C 3.960938 -1.25 4.3125 -1.394531 4.5625 -1.6875 C 4.820312 -1.988281 4.953125 -2.457031 4.953125 -3.09375 L 4.953125 -6.5 L 6.578125 -6.5 L 6.578125 0 L 5.015625 0 L 5.015625 -0.953125 L 4.890625 -0.984375 C 4.679688 -0.609375 4.425781 -0.328125 4.125 -0.140625 C 3.820312 0.0351562 3.4375 0.125 2.96875 0.125 Z M 2.96875 0.125 "></path></g></g></g><g fill="#000000" fill-opacity="1"><g transform="translate(280.554923, 103.401609)"><g><path d="M 2.703125 0.125 C 2.109375 0.125 1.65625 -0.03125 1.34375 -0.34375 C 1.039062 -0.664062 0.890625 -1.148438 0.890625 -1.796875 L 0.890625 -9.109375 L 2.53125 -9.109375 L 2.53125 -1.859375 C 2.53125 -1.460938 2.691406 -1.265625 3.015625 -1.265625 C 3.109375 -1.265625 3.210938 -1.28125 3.328125 -1.3125 L 3.40625 -1.28125 L 3.546875 -0.03125 C 3.460938 0.0195312 3.34375 0.0546875 3.1875 0.078125 C 3.039062 0.109375 2.878906 0.125 2.703125 0.125 Z M 2.703125 0.125 "></path></g></g></g><g fill="#000000" fill-opacity="1"><g transform="translate(284.285343, 103.401609)"><g><path d="M 4.484375 -1.546875 L 4.90625 -0.34375 C 4.726562 -0.195312 4.503906 -0.0820312 4.234375 0 C 3.972656 0.0820312 3.671875 0.125 3.328125 0.125 C 2.628906 0.125 2.097656 -0.0664062 1.734375 -0.453125 C 1.367188 -0.835938 1.1875 -1.394531 1.1875 -2.125 L 1.1875 -5.203125 L 0.1875 -5.203125 L 0.1875 -6.5 L 1.1875 -6.5 L 1.1875 -7.765625 L 2.8125 -8.03125 L 2.8125 -6.5 L 4.65625 -6.5 L 4.65625 -5.203125 L 2.8125 -5.203125 L 2.8125 -2.234375 C 2.8125 -1.910156 2.878906 -1.675781 3.015625 -1.53125 C 3.148438 -1.382812 3.34375 -1.3125 3.59375 -1.3125 C 3.882812 -1.3125 4.140625 -1.390625 4.359375 -1.546875 Z M 4.484375 -1.546875 "></path></g></g></g><g fill="#000000" fill-opacity="1"><g transform="translate(289.327887, 103.401609)"><g><path d="M 1.75 -7.28125 C 1.457031 -7.28125 1.21875 -7.367188 1.03125 -7.546875 C 0.84375 -7.722656 0.75 -7.953125 0.75 -8.234375 C 0.75 -8.515625 0.84375 -8.742188 1.03125 -8.921875 C 1.21875 -9.097656 1.457031 -9.1875 1.75 -9.1875 C 1.945312 -9.1875 2.117188 -9.144531 2.265625 -9.0625 C 2.421875 -8.976562 2.539062 -8.863281 2.625 -8.71875 C 2.707031 -8.582031 2.75 -8.421875 2.75 -8.234375 C 2.75 -8.046875 2.707031 -7.878906 2.625 -7.734375 C 2.539062 -7.585938 2.421875 -7.472656 2.265625 -7.390625 C 2.117188 -7.316406 1.945312 -7.28125 1.75 -7.28125 Z M 0.9375 0 L 0.9375 -6.5 L 2.5625 -6.5 L 2.5625 0 Z M 0.9375 0 "></path></g></g></g><g fill="#000000" fill-opacity="1"><g transform="translate(292.822949, 103.401609)"><g><path d="M 0.9375 2.625 L 0.9375 -6.5 L 2.5625 -6.5 L 2.5625 -5.640625 L 2.6875 -5.625 C 2.882812 -5.957031 3.144531 -6.207031 3.46875 -6.375 C 3.789062 -6.539062 4.164062 -6.625 4.59375 -6.625 C 5.113281 -6.625 5.566406 -6.5 5.953125 -6.25 C 6.347656 -6 6.65625 -5.617188 6.875 -5.109375 C 7.09375 -4.609375 7.203125 -3.988281 7.203125 -3.25 C 7.203125 -2.5 7.085938 -1.875 6.859375 -1.375 C 6.628906 -0.875 6.3125 -0.5 5.90625 -0.25 C 5.5 0 5.023438 0.125 4.484375 0.125 C 4.078125 0.125 3.726562 0.0546875 3.4375 -0.078125 C 3.144531 -0.210938 2.894531 -0.425781 2.6875 -0.71875 L 2.5625 -0.6875 L 2.5625 2.625 Z M 4.03125 -1.265625 C 4.519531 -1.265625 4.890625 -1.421875 5.140625 -1.734375 C 5.390625 -2.054688 5.515625 -2.5625 5.515625 -3.25 C 5.515625 -3.9375 5.390625 -4.4375 5.140625 -4.75 C 4.890625 -5.070312 4.519531 -5.234375 4.03125 -5.234375 C 3.570312 -5.234375 3.207031 -5.066406 2.9375 -4.734375 C 2.675781 -4.410156 2.546875 -3.914062 2.546875 -3.25 C 2.546875 -2.582031 2.675781 -2.082031 2.9375 -1.75 C 3.207031 -1.425781 3.570312 -1.265625 4.03125 -1.265625 Z M 4.03125 -1.265625 "></path></g></g></g><g fill="#000000" fill-opacity="1"><g transform="translate(300.595642, 103.401609)"><g><path d="M 2.703125 0.125 C 2.109375 0.125 1.65625 -0.03125 1.34375 -0.34375 C 1.039062 -0.664062 0.890625 -1.148438 0.890625 -1.796875 L 0.890625 -9.109375 L 2.53125 -9.109375 L 2.53125 -1.859375 C 2.53125 -1.460938 2.691406 -1.265625 3.015625 -1.265625 C 3.109375 -1.265625 3.210938 -1.28125 3.328125 -1.3125 L 3.40625 -1.28125 L 3.546875 -0.03125 C 3.460938 0.0195312 3.34375 0.0546875 3.1875 0.078125 C 3.039062 0.109375 2.878906 0.125 2.703125 0.125 Z M 2.703125 0.125 "></path></g></g></g><g fill="#000000" fill-opacity="1"><g transform="translate(304.326062, 103.401609)"><g><path d="M 6.421875 -2.875 L 2.25 -2.875 C 2.289062 -2.3125 2.445312 -1.898438 2.71875 -1.640625 C 3 -1.390625 3.378906 -1.265625 3.859375 -1.265625 C 4.222656 -1.265625 4.519531 -1.332031 4.75 -1.46875 C 4.988281 -1.601562 5.175781 -1.816406 5.3125 -2.109375 L 5.4375 -2.109375 L 6.53125 -1.40625 C 6.3125 -0.945312 5.988281 -0.578125 5.5625 -0.296875 C 5.132812 -0.015625 4.566406 0.125 3.859375 0.125 C 3.179688 0.125 2.597656 0 2.109375 -0.25 C 1.617188 -0.507812 1.238281 -0.890625 0.96875 -1.390625 C 0.707031 -1.898438 0.578125 -2.519531 0.578125 -3.25 C 0.578125 -3.988281 0.71875 -4.609375 1 -5.109375 C 1.28125 -5.617188 1.65625 -6 2.125 -6.25 C 2.601562 -6.5 3.140625 -6.625 3.734375 -6.625 C 4.648438 -6.625 5.351562 -6.378906 5.84375 -5.890625 C 6.332031 -5.398438 6.578125 -4.6875 6.578125 -3.75 C 6.578125 -3.40625 6.566406 -3.140625 6.546875 -2.953125 Z M 5.015625 -3.9375 C 5.003906 -4.425781 4.890625 -4.785156 4.671875 -5.015625 C 4.460938 -5.242188 4.148438 -5.359375 3.734375 -5.359375 C 2.910156 -5.359375 2.425781 -4.882812 2.28125 -3.9375 Z M 5.015625 -3.9375 "></path></g></g></g><g fill="#000000" fill-opacity="1"><g transform="translate(311.380914, 103.401609)"><g></g></g></g><g fill="#000000" fill-opacity="1"><g transform="translate(314.222863, 103.401609)"><g><path d="M 2.96875 0.125 C 2.238281 0.125 1.703125 -0.0703125 1.359375 -0.46875 C 1.015625 -0.875 0.84375 -1.445312 0.84375 -2.1875 L 0.84375 -6.5 L 2.46875 -6.5 L 2.46875 -2.390625 C 2.46875 -1.992188 2.550781 -1.703125 2.71875 -1.515625 C 2.894531 -1.335938 3.160156 -1.25 3.515625 -1.25 C 3.960938 -1.25 4.3125 -1.394531 4.5625 -1.6875 C 4.820312 -1.988281 4.953125 -2.457031 4.953125 -3.09375 L 4.953125 -6.5 L 6.578125 -6.5 L 6.578125 0 L 5.015625 0 L 5.015625 -0.953125 L 4.890625 -0.984375 C 4.679688 -0.609375 4.425781 -0.328125 4.125 -0.140625 C 3.820312 0.0351562 3.4375 0.125 2.96875 0.125 Z M 2.96875 0.125 "></path></g></g></g><g fill="#000000" fill-opacity="1"><g transform="translate(321.730775, 103.401609)"><g><path d="M 0.9375 0 L 0.9375 -6.5 L 2.5 -6.5 L 2.5 -5.546875 L 2.625 -5.515625 C 3.03125 -6.253906 3.6875 -6.625 4.59375 -6.625 C 5.34375 -6.625 5.890625 -6.414062 6.234375 -6 C 6.585938 -5.59375 6.765625 -5 6.765625 -4.21875 L 6.765625 0 L 5.140625 0 L 5.140625 -4.015625 C 5.140625 -4.453125 5.050781 -4.765625 4.875 -4.953125 C 4.707031 -5.140625 4.429688 -5.234375 4.046875 -5.234375 C 3.578125 -5.234375 3.210938 -5.082031 2.953125 -4.78125 C 2.691406 -4.476562 2.5625 -4.003906 2.5625 -3.359375 L 2.5625 0 Z M 0.9375 0 "></path></g></g></g><g fill="#000000" fill-opacity="1"><g transform="translate(329.332829, 103.401609)"><g><path d="M 1.75 -7.28125 C 1.457031 -7.28125 1.21875 -7.367188 1.03125 -7.546875 C 0.84375 -7.722656 0.75 -7.953125 0.75 -8.234375 C 0.75 -8.515625 0.84375 -8.742188 1.03125 -8.921875 C 1.21875 -9.097656 1.457031 -9.1875 1.75 -9.1875 C 1.945312 -9.1875 2.117188 -9.144531 2.265625 -9.0625 C 2.421875 -8.976562 2.539062 -8.863281 2.625 -8.71875 C 2.707031 -8.582031 2.75 -8.421875 2.75 -8.234375 C 2.75 -8.046875 2.707031 -7.878906 2.625 -7.734375 C 2.539062 -7.585938 2.421875 -7.472656 2.265625 -7.390625 C 2.117188 -7.316406 1.945312 -7.28125 1.75 -7.28125 Z M 0.9375 0 L 0.9375 -6.5 L 2.5625 -6.5 L 2.5625 0 Z M 0.9375 0 "></path></g></g></g><g fill="#000000" fill-opacity="1"><g transform="translate(332.827891, 103.401609)"><g><path d="M 4.484375 -1.546875 L 4.90625 -0.34375 C 4.726562 -0.195312 4.503906 -0.0820312 4.234375 0 C 3.972656 0.0820312 3.671875 0.125 3.328125 0.125 C 2.628906 0.125 2.097656 -0.0664062 1.734375 -0.453125 C 1.367188 -0.835938 1.1875 -1.394531 1.1875 -2.125 L 1.1875 -5.203125 L 0.1875 -5.203125 L 0.1875 -6.5 L 1.1875 -6.5 L 1.1875 -7.765625 L 2.8125 -8.03125 L 2.8125 -6.5 L 4.65625 -6.5 L 4.65625 -5.203125 L 2.8125 -5.203125 L 2.8125 -2.234375 C 2.8125 -1.910156 2.878906 -1.675781 3.015625 -1.53125 C 3.148438 -1.382812 3.34375 -1.3125 3.59375 -1.3125 C 3.882812 -1.3125 4.140625 -1.390625 4.359375 -1.546875 Z M 4.484375 -1.546875 "></path></g></g></g><g fill="#000000" fill-opacity="1"><g transform="translate(337.870435, 103.401609)"><g><path d="M 3.046875 0.125 C 2.597656 0.125 2.1875 0.0703125 1.8125 -0.03125 C 1.445312 -0.132812 1.132812 -0.273438 0.875 -0.453125 C 0.613281 -0.640625 0.421875 -0.851562 0.296875 -1.09375 L 1.203125 -2.0625 L 1.328125 -2.0625 C 1.546875 -1.769531 1.800781 -1.550781 2.09375 -1.40625 C 2.382812 -1.269531 2.703125 -1.203125 3.046875 -1.203125 C 3.367188 -1.203125 3.609375 -1.253906 3.765625 -1.359375 C 3.929688 -1.472656 4.015625 -1.640625 4.015625 -1.859375 C 4.015625 -2.023438 3.953125 -2.160156 3.828125 -2.265625 C 3.710938 -2.378906 3.53125 -2.46875 3.28125 -2.53125 L 2.421875 -2.734375 C 1.773438 -2.890625 1.300781 -3.125 1 -3.4375 C 0.707031 -3.757812 0.5625 -4.160156 0.5625 -4.640625 C 0.5625 -5.046875 0.660156 -5.398438 0.859375 -5.703125 C 1.066406 -6.003906 1.359375 -6.234375 1.734375 -6.390625 C 2.109375 -6.546875 2.546875 -6.625 3.046875 -6.625 C 3.628906 -6.625 4.113281 -6.535156 4.5 -6.359375 C 4.882812 -6.191406 5.1875 -5.96875 5.40625 -5.6875 L 4.53125 -4.75 L 4.421875 -4.75 C 4.234375 -4.945312 4.023438 -5.09375 3.796875 -5.1875 C 3.578125 -5.289062 3.328125 -5.34375 3.046875 -5.34375 C 2.398438 -5.34375 2.078125 -5.140625 2.078125 -4.734375 C 2.078125 -4.566406 2.132812 -4.429688 2.25 -4.328125 C 2.375 -4.222656 2.585938 -4.132812 2.890625 -4.0625 L 3.703125 -3.890625 C 4.359375 -3.742188 4.835938 -3.515625 5.140625 -3.203125 C 5.441406 -2.890625 5.59375 -2.472656 5.59375 -1.953125 C 5.59375 -1.535156 5.488281 -1.171875 5.28125 -0.859375 C 5.082031 -0.546875 4.789062 -0.300781 4.40625 -0.125 C 4.019531 0.0390625 3.566406 0.125 3.046875 0.125 Z M 3.046875 0.125 "></path></g></g></g><g fill="#000000" fill-opacity="1"><g transform="translate(343.854409, 103.401609)"><g><path d="M 0.375 1.109375 C 0.644531 0.640625 0.875 0.164062 1.0625 -0.3125 C 1.257812 -0.789062 1.414062 -1.328125 1.53125 -1.921875 C 1.644531 -2.523438 1.703125 -3.195312 1.703125 -3.9375 C 1.703125 -4.675781 1.644531 -5.34375 1.53125 -5.9375 C 1.414062 -6.539062 1.257812 -7.082031 1.0625 -7.5625 C 0.875 -8.039062 0.644531 -8.515625 0.375 -8.984375 L 0.390625 -9.109375 L 1.640625 -9.109375 C 1.984375 -8.679688 2.28125 -8.234375 2.53125 -7.765625 C 2.789062 -7.296875 3.003906 -6.738281 3.171875 -6.09375 C 3.335938 -5.457031 3.421875 -4.738281 3.421875 -3.9375 C 3.421875 -2.78125 3.253906 -1.796875 2.921875 -0.984375 C 2.597656 -0.171875 2.171875 0.566406 1.640625 1.234375 L 0.390625 1.234375 Z M 0.375 1.109375 "></path></g></g></g></svg> 